M48
; DRILL file {KiCad (5.1.10-1-10_14)} date Sunday, December 12, 2021 at 09:15:31 PM
; FORMAT={3:3/ absolute / metric / suppress leading zeros}
; #@! TF.CreationDate,2021-12-12T21:15:31+11:00
; #@! TF.GenerationSoftware,Kicad,Pcbnew,(5.1.10-1-10_14)
FMAT,2
METRIC,TZ
T1C0.400
T2C1.000
%
G90
G05
T1
X75946Y-87376
X78740Y-87376
X80137Y-50038
X80137Y-51562
X81280Y-57277
X81661Y-59309
X82296Y-82042
X82677Y-53467
X84074Y-72136
X84328Y-75692
X84328Y-78740
X84836Y-50800
X85281Y-73343
X87376Y-75692
X88011Y-52781
X88900Y-47752
X88900Y-48768
X89916Y-58420
X89916Y-65024
X89916Y-67818
X91440Y-65405
X92964Y-46165
X92964Y-48260
X92964Y-50292
X93980Y-58420
X94488Y-74295
X95377Y-62928
X95885Y-75692
X96520Y-46165
X96520Y-48260
X96520Y-50292
X96520Y-56591
X97727Y-71057
X98044Y-77724
X98552Y-81534
X98654Y-61163
X98704Y-62128
X99314Y-72327
X100584Y-46165
X100584Y-48260
X100838Y-52451
X101092Y-77724
X101600Y-70104
X101854Y-80137
X102870Y-72390
X102870Y-74930
X103886Y-87376
X104140Y-68834
X106680Y-68834
X106998Y-87376
T2
X77470Y-48260
X77470Y-50800
X77470Y-54610
X77470Y-57150
X77470Y-59690
X77470Y-62230
X77470Y-64770
X77470Y-67310
X77470Y-69850
X77470Y-72390
X77470Y-74930
X77470Y-77470
X77470Y-80010
X77470Y-82550
X77470Y-85090
X81280Y-85090
X83820Y-85090
X86360Y-85090
X88900Y-85090
X91440Y-85090
X93980Y-85090
X96520Y-85090
X99060Y-85090
X101600Y-85090
X105410Y-48260
X105410Y-50800
X105410Y-53340
X105410Y-55880
X105410Y-58420
X105410Y-60960
X105410Y-63500
X105410Y-66040
X105410Y-72390
X105410Y-74930
X105410Y-77470
X105410Y-80010
X105410Y-82550
X105410Y-85090
T0
M30
