G04 #@! TF.GenerationSoftware,KiCad,Pcbnew,(5.1.10-1-10_14)*
G04 #@! TF.CreationDate,2021-12-12T21:17:35+11:00*
G04 #@! TF.ProjectId,STM32L1_Breakout,53544d33-324c-4315-9f42-7265616b6f75,rev?*
G04 #@! TF.SameCoordinates,Original*
G04 #@! TF.FileFunction,Copper,L2,Inr*
G04 #@! TF.FilePolarity,Positive*
%FSLAX46Y46*%
G04 Gerber Fmt 4.6, Leading zero omitted, Abs format (unit mm)*
G04 Created by KiCad (PCBNEW (5.1.10-1-10_14)) date 2021-12-12 21:17:35*
%MOMM*%
%LPD*%
G01*
G04 APERTURE LIST*
G04 #@! TA.AperFunction,ComponentPad*
%ADD10O,1.700000X1.700000*%
G04 #@! TD*
G04 #@! TA.AperFunction,ComponentPad*
%ADD11R,1.700000X1.700000*%
G04 #@! TD*
G04 #@! TA.AperFunction,ViaPad*
%ADD12C,0.800000*%
G04 #@! TD*
G04 #@! TA.AperFunction,Conductor*
%ADD13C,0.500000*%
G04 #@! TD*
G04 #@! TA.AperFunction,Conductor*
%ADD14C,0.254000*%
G04 #@! TD*
G04 #@! TA.AperFunction,Conductor*
%ADD15C,0.100000*%
G04 #@! TD*
G04 APERTURE END LIST*
D10*
X105410000Y-66040000D03*
X105410000Y-63500000D03*
X105410000Y-60960000D03*
X105410000Y-58420000D03*
X105410000Y-55880000D03*
X105410000Y-53340000D03*
X105410000Y-50800000D03*
D11*
X105410000Y-48260000D03*
D10*
X105410000Y-85090000D03*
X105410000Y-82550000D03*
X105410000Y-80010000D03*
X105410000Y-77470000D03*
X105410000Y-74930000D03*
D11*
X105410000Y-72390000D03*
D10*
X77470000Y-85090000D03*
X77470000Y-82550000D03*
X77470000Y-80010000D03*
X77470000Y-77470000D03*
X77470000Y-74930000D03*
X77470000Y-72390000D03*
X77470000Y-69850000D03*
X77470000Y-67310000D03*
X77470000Y-64770000D03*
X77470000Y-62230000D03*
X77470000Y-59690000D03*
X77470000Y-57150000D03*
D11*
X77470000Y-54610000D03*
D10*
X81280000Y-85090000D03*
X83820000Y-85090000D03*
X86360000Y-85090000D03*
X88900000Y-85090000D03*
X91440000Y-85090000D03*
X93980000Y-85090000D03*
X96520000Y-85090000D03*
X99060000Y-85090000D03*
D11*
X101600000Y-85090000D03*
D10*
X77470000Y-50800000D03*
D11*
X77470000Y-48260000D03*
D12*
X91440000Y-65405000D03*
X94488000Y-74295000D03*
X95885000Y-75692000D03*
X99314000Y-72326500D03*
X97726500Y-71056500D03*
X85280500Y-73342500D03*
X95377000Y-62928500D03*
X88900000Y-47752000D03*
X88900000Y-48768000D03*
X82677000Y-53467000D03*
X102870000Y-72390000D03*
X89916000Y-65024000D03*
X84074000Y-72136000D03*
X98704400Y-62128400D03*
X98653600Y-61163200D03*
X88011000Y-52781200D03*
X96520000Y-56591200D03*
X80137000Y-50038000D03*
X80137000Y-51562000D03*
X81661000Y-59309000D03*
X81280000Y-57277000D03*
X98552000Y-81534000D03*
X102870000Y-74930000D03*
X100838000Y-52451000D03*
X104140000Y-68834000D03*
X106680000Y-68834000D03*
X84328000Y-75692000D03*
X87376000Y-75692000D03*
X84328000Y-78740000D03*
X101092000Y-77724000D03*
X98044000Y-77724000D03*
X101600000Y-70104000D03*
X93980000Y-58420000D03*
X89916000Y-58420000D03*
X92964000Y-48260000D03*
X92964000Y-50292000D03*
X96520000Y-50292000D03*
X96520000Y-48260000D03*
X84836000Y-50800000D03*
X89916000Y-67818000D03*
X82296000Y-82042000D03*
X100584000Y-48260000D03*
X78740000Y-87376000D03*
X103886000Y-87376000D03*
X100584000Y-46164500D03*
X96520000Y-46164500D03*
X92964000Y-46164500D03*
X75946000Y-87376000D03*
X106997500Y-87376000D03*
X101854000Y-80137000D03*
D13*
X88011000Y-52832000D02*
X88011000Y-51435000D01*
D14*
X97155000Y-57023000D02*
X92900500Y-57023000D01*
X92875724Y-57025440D01*
X92851899Y-57032667D01*
X92829943Y-57044403D01*
X92810697Y-57060197D01*
X92794903Y-57079443D01*
X92783167Y-57101399D01*
X92775940Y-57125224D01*
X92773500Y-57150000D01*
X92773500Y-63817500D01*
X91376500Y-63817500D01*
X91376500Y-57150000D01*
X91374060Y-57125224D01*
X91366833Y-57101399D01*
X91355097Y-57079443D01*
X91339303Y-57060197D01*
X91320057Y-57044403D01*
X91298101Y-57032667D01*
X91274276Y-57025440D01*
X91249500Y-57023000D01*
X87249000Y-57023000D01*
X87249000Y-52451000D01*
X97155000Y-52451000D01*
X97155000Y-57023000D01*
G04 #@! TA.AperFunction,Conductor*
D15*
G36*
X97155000Y-57023000D02*
G01*
X92900500Y-57023000D01*
X92875724Y-57025440D01*
X92851899Y-57032667D01*
X92829943Y-57044403D01*
X92810697Y-57060197D01*
X92794903Y-57079443D01*
X92783167Y-57101399D01*
X92775940Y-57125224D01*
X92773500Y-57150000D01*
X92773500Y-63817500D01*
X91376500Y-63817500D01*
X91376500Y-57150000D01*
X91374060Y-57125224D01*
X91366833Y-57101399D01*
X91355097Y-57079443D01*
X91339303Y-57060197D01*
X91320057Y-57044403D01*
X91298101Y-57032667D01*
X91274276Y-57025440D01*
X91249500Y-57023000D01*
X87249000Y-57023000D01*
X87249000Y-52451000D01*
X97155000Y-52451000D01*
X97155000Y-57023000D01*
G37*
G04 #@! TD.AperFunction*
D14*
X109030872Y-45131978D02*
X109215435Y-45187701D01*
X109385660Y-45278212D01*
X109535061Y-45400060D01*
X109657953Y-45548611D01*
X109749650Y-45718202D01*
X109806660Y-45902372D01*
X109830000Y-46124439D01*
X109830001Y-88613711D01*
X109808022Y-88837873D01*
X109752300Y-89022434D01*
X109661788Y-89192661D01*
X109539942Y-89342059D01*
X109391388Y-89464953D01*
X109221800Y-89556649D01*
X109037632Y-89613659D01*
X108815560Y-89637000D01*
X73946279Y-89637000D01*
X73722127Y-89615022D01*
X73537566Y-89559300D01*
X73367339Y-89468788D01*
X73217941Y-89346942D01*
X73095047Y-89198388D01*
X73003351Y-89028800D01*
X72946341Y-88844632D01*
X72923000Y-88622560D01*
X72923000Y-53760000D01*
X75981928Y-53760000D01*
X75981928Y-55460000D01*
X75994188Y-55584482D01*
X76030498Y-55704180D01*
X76089463Y-55814494D01*
X76168815Y-55911185D01*
X76265506Y-55990537D01*
X76375820Y-56049502D01*
X76448380Y-56071513D01*
X76316525Y-56203368D01*
X76154010Y-56446589D01*
X76042068Y-56716842D01*
X75985000Y-57003740D01*
X75985000Y-57296260D01*
X76042068Y-57583158D01*
X76154010Y-57853411D01*
X76316525Y-58096632D01*
X76523368Y-58303475D01*
X76697760Y-58420000D01*
X76523368Y-58536525D01*
X76316525Y-58743368D01*
X76154010Y-58986589D01*
X76042068Y-59256842D01*
X75985000Y-59543740D01*
X75985000Y-59836260D01*
X76042068Y-60123158D01*
X76154010Y-60393411D01*
X76316525Y-60636632D01*
X76523368Y-60843475D01*
X76697760Y-60960000D01*
X76523368Y-61076525D01*
X76316525Y-61283368D01*
X76154010Y-61526589D01*
X76042068Y-61796842D01*
X75985000Y-62083740D01*
X75985000Y-62376260D01*
X76042068Y-62663158D01*
X76154010Y-62933411D01*
X76316525Y-63176632D01*
X76523368Y-63383475D01*
X76697760Y-63500000D01*
X76523368Y-63616525D01*
X76316525Y-63823368D01*
X76154010Y-64066589D01*
X76042068Y-64336842D01*
X75985000Y-64623740D01*
X75985000Y-64916260D01*
X76042068Y-65203158D01*
X76154010Y-65473411D01*
X76316525Y-65716632D01*
X76523368Y-65923475D01*
X76697760Y-66040000D01*
X76523368Y-66156525D01*
X76316525Y-66363368D01*
X76154010Y-66606589D01*
X76042068Y-66876842D01*
X75985000Y-67163740D01*
X75985000Y-67456260D01*
X76042068Y-67743158D01*
X76154010Y-68013411D01*
X76316525Y-68256632D01*
X76523368Y-68463475D01*
X76697760Y-68580000D01*
X76523368Y-68696525D01*
X76316525Y-68903368D01*
X76154010Y-69146589D01*
X76042068Y-69416842D01*
X75985000Y-69703740D01*
X75985000Y-69996260D01*
X76042068Y-70283158D01*
X76154010Y-70553411D01*
X76316525Y-70796632D01*
X76523368Y-71003475D01*
X76697760Y-71120000D01*
X76523368Y-71236525D01*
X76316525Y-71443368D01*
X76154010Y-71686589D01*
X76042068Y-71956842D01*
X75985000Y-72243740D01*
X75985000Y-72536260D01*
X76042068Y-72823158D01*
X76154010Y-73093411D01*
X76316525Y-73336632D01*
X76523368Y-73543475D01*
X76697760Y-73660000D01*
X76523368Y-73776525D01*
X76316525Y-73983368D01*
X76154010Y-74226589D01*
X76042068Y-74496842D01*
X75985000Y-74783740D01*
X75985000Y-75076260D01*
X76042068Y-75363158D01*
X76154010Y-75633411D01*
X76316525Y-75876632D01*
X76523368Y-76083475D01*
X76697760Y-76200000D01*
X76523368Y-76316525D01*
X76316525Y-76523368D01*
X76154010Y-76766589D01*
X76042068Y-77036842D01*
X75985000Y-77323740D01*
X75985000Y-77616260D01*
X76042068Y-77903158D01*
X76154010Y-78173411D01*
X76316525Y-78416632D01*
X76523368Y-78623475D01*
X76697760Y-78740000D01*
X76523368Y-78856525D01*
X76316525Y-79063368D01*
X76154010Y-79306589D01*
X76042068Y-79576842D01*
X75985000Y-79863740D01*
X75985000Y-80156260D01*
X76042068Y-80443158D01*
X76154010Y-80713411D01*
X76316525Y-80956632D01*
X76523368Y-81163475D01*
X76697760Y-81280000D01*
X76523368Y-81396525D01*
X76316525Y-81603368D01*
X76154010Y-81846589D01*
X76042068Y-82116842D01*
X75985000Y-82403740D01*
X75985000Y-82696260D01*
X76042068Y-82983158D01*
X76154010Y-83253411D01*
X76316525Y-83496632D01*
X76523368Y-83703475D01*
X76697760Y-83820000D01*
X76523368Y-83936525D01*
X76316525Y-84143368D01*
X76154010Y-84386589D01*
X76042068Y-84656842D01*
X75985000Y-84943740D01*
X75985000Y-85236260D01*
X76042068Y-85523158D01*
X76154010Y-85793411D01*
X76316525Y-86036632D01*
X76523368Y-86243475D01*
X76766589Y-86405990D01*
X77036842Y-86517932D01*
X77323740Y-86575000D01*
X77616260Y-86575000D01*
X77903158Y-86517932D01*
X78173411Y-86405990D01*
X78416632Y-86243475D01*
X78623475Y-86036632D01*
X78785990Y-85793411D01*
X78897932Y-85523158D01*
X78955000Y-85236260D01*
X78955000Y-84943740D01*
X79795000Y-84943740D01*
X79795000Y-85236260D01*
X79852068Y-85523158D01*
X79964010Y-85793411D01*
X80126525Y-86036632D01*
X80333368Y-86243475D01*
X80576589Y-86405990D01*
X80846842Y-86517932D01*
X81133740Y-86575000D01*
X81426260Y-86575000D01*
X81713158Y-86517932D01*
X81983411Y-86405990D01*
X82226632Y-86243475D01*
X82433475Y-86036632D01*
X82550000Y-85862240D01*
X82666525Y-86036632D01*
X82873368Y-86243475D01*
X83116589Y-86405990D01*
X83386842Y-86517932D01*
X83673740Y-86575000D01*
X83966260Y-86575000D01*
X84253158Y-86517932D01*
X84523411Y-86405990D01*
X84766632Y-86243475D01*
X84973475Y-86036632D01*
X85090000Y-85862240D01*
X85206525Y-86036632D01*
X85413368Y-86243475D01*
X85656589Y-86405990D01*
X85926842Y-86517932D01*
X86213740Y-86575000D01*
X86506260Y-86575000D01*
X86793158Y-86517932D01*
X87063411Y-86405990D01*
X87306632Y-86243475D01*
X87513475Y-86036632D01*
X87630000Y-85862240D01*
X87746525Y-86036632D01*
X87953368Y-86243475D01*
X88196589Y-86405990D01*
X88466842Y-86517932D01*
X88753740Y-86575000D01*
X89046260Y-86575000D01*
X89333158Y-86517932D01*
X89603411Y-86405990D01*
X89846632Y-86243475D01*
X90053475Y-86036632D01*
X90170000Y-85862240D01*
X90286525Y-86036632D01*
X90493368Y-86243475D01*
X90736589Y-86405990D01*
X91006842Y-86517932D01*
X91293740Y-86575000D01*
X91586260Y-86575000D01*
X91873158Y-86517932D01*
X92143411Y-86405990D01*
X92386632Y-86243475D01*
X92593475Y-86036632D01*
X92710000Y-85862240D01*
X92826525Y-86036632D01*
X93033368Y-86243475D01*
X93276589Y-86405990D01*
X93546842Y-86517932D01*
X93833740Y-86575000D01*
X94126260Y-86575000D01*
X94413158Y-86517932D01*
X94683411Y-86405990D01*
X94926632Y-86243475D01*
X95133475Y-86036632D01*
X95250000Y-85862240D01*
X95366525Y-86036632D01*
X95573368Y-86243475D01*
X95816589Y-86405990D01*
X96086842Y-86517932D01*
X96373740Y-86575000D01*
X96666260Y-86575000D01*
X96953158Y-86517932D01*
X97223411Y-86405990D01*
X97466632Y-86243475D01*
X97673475Y-86036632D01*
X97790000Y-85862240D01*
X97906525Y-86036632D01*
X98113368Y-86243475D01*
X98356589Y-86405990D01*
X98626842Y-86517932D01*
X98913740Y-86575000D01*
X99206260Y-86575000D01*
X99493158Y-86517932D01*
X99763411Y-86405990D01*
X100006632Y-86243475D01*
X100138487Y-86111620D01*
X100160498Y-86184180D01*
X100219463Y-86294494D01*
X100298815Y-86391185D01*
X100395506Y-86470537D01*
X100505820Y-86529502D01*
X100625518Y-86565812D01*
X100750000Y-86578072D01*
X102450000Y-86578072D01*
X102574482Y-86565812D01*
X102694180Y-86529502D01*
X102804494Y-86470537D01*
X102901185Y-86391185D01*
X102980537Y-86294494D01*
X103039502Y-86184180D01*
X103075812Y-86064482D01*
X103088072Y-85940000D01*
X103088072Y-84240000D01*
X103075812Y-84115518D01*
X103039502Y-83995820D01*
X102980537Y-83885506D01*
X102901185Y-83788815D01*
X102804494Y-83709463D01*
X102694180Y-83650498D01*
X102574482Y-83614188D01*
X102450000Y-83601928D01*
X100750000Y-83601928D01*
X100625518Y-83614188D01*
X100505820Y-83650498D01*
X100395506Y-83709463D01*
X100298815Y-83788815D01*
X100219463Y-83885506D01*
X100160498Y-83995820D01*
X100138487Y-84068380D01*
X100006632Y-83936525D01*
X99763411Y-83774010D01*
X99493158Y-83662068D01*
X99206260Y-83605000D01*
X98913740Y-83605000D01*
X98626842Y-83662068D01*
X98356589Y-83774010D01*
X98113368Y-83936525D01*
X97906525Y-84143368D01*
X97790000Y-84317760D01*
X97673475Y-84143368D01*
X97466632Y-83936525D01*
X97223411Y-83774010D01*
X96953158Y-83662068D01*
X96666260Y-83605000D01*
X96373740Y-83605000D01*
X96086842Y-83662068D01*
X95816589Y-83774010D01*
X95573368Y-83936525D01*
X95366525Y-84143368D01*
X95250000Y-84317760D01*
X95133475Y-84143368D01*
X94926632Y-83936525D01*
X94683411Y-83774010D01*
X94413158Y-83662068D01*
X94126260Y-83605000D01*
X93833740Y-83605000D01*
X93546842Y-83662068D01*
X93276589Y-83774010D01*
X93033368Y-83936525D01*
X92826525Y-84143368D01*
X92710000Y-84317760D01*
X92593475Y-84143368D01*
X92386632Y-83936525D01*
X92143411Y-83774010D01*
X91873158Y-83662068D01*
X91586260Y-83605000D01*
X91293740Y-83605000D01*
X91006842Y-83662068D01*
X90736589Y-83774010D01*
X90493368Y-83936525D01*
X90286525Y-84143368D01*
X90170000Y-84317760D01*
X90053475Y-84143368D01*
X89846632Y-83936525D01*
X89603411Y-83774010D01*
X89333158Y-83662068D01*
X89046260Y-83605000D01*
X88753740Y-83605000D01*
X88466842Y-83662068D01*
X88196589Y-83774010D01*
X87953368Y-83936525D01*
X87746525Y-84143368D01*
X87630000Y-84317760D01*
X87513475Y-84143368D01*
X87306632Y-83936525D01*
X87063411Y-83774010D01*
X86793158Y-83662068D01*
X86506260Y-83605000D01*
X86213740Y-83605000D01*
X85926842Y-83662068D01*
X85656589Y-83774010D01*
X85413368Y-83936525D01*
X85206525Y-84143368D01*
X85090000Y-84317760D01*
X84973475Y-84143368D01*
X84766632Y-83936525D01*
X84523411Y-83774010D01*
X84253158Y-83662068D01*
X83966260Y-83605000D01*
X83673740Y-83605000D01*
X83386842Y-83662068D01*
X83116589Y-83774010D01*
X82873368Y-83936525D01*
X82666525Y-84143368D01*
X82550000Y-84317760D01*
X82433475Y-84143368D01*
X82226632Y-83936525D01*
X81983411Y-83774010D01*
X81713158Y-83662068D01*
X81426260Y-83605000D01*
X81133740Y-83605000D01*
X80846842Y-83662068D01*
X80576589Y-83774010D01*
X80333368Y-83936525D01*
X80126525Y-84143368D01*
X79964010Y-84386589D01*
X79852068Y-84656842D01*
X79795000Y-84943740D01*
X78955000Y-84943740D01*
X78897932Y-84656842D01*
X78785990Y-84386589D01*
X78623475Y-84143368D01*
X78416632Y-83936525D01*
X78242240Y-83820000D01*
X78416632Y-83703475D01*
X78623475Y-83496632D01*
X78785990Y-83253411D01*
X78897932Y-82983158D01*
X78955000Y-82696260D01*
X78955000Y-82403740D01*
X78897932Y-82116842D01*
X78785990Y-81846589D01*
X78623475Y-81603368D01*
X78416632Y-81396525D01*
X78242240Y-81280000D01*
X78416632Y-81163475D01*
X78623475Y-80956632D01*
X78785990Y-80713411D01*
X78897932Y-80443158D01*
X78955000Y-80156260D01*
X78955000Y-80035061D01*
X100819000Y-80035061D01*
X100819000Y-80238939D01*
X100858774Y-80438898D01*
X100936795Y-80627256D01*
X101050063Y-80796774D01*
X101194226Y-80940937D01*
X101363744Y-81054205D01*
X101552102Y-81132226D01*
X101752061Y-81172000D01*
X101955939Y-81172000D01*
X102155898Y-81132226D01*
X102344256Y-81054205D01*
X102513774Y-80940937D01*
X102657937Y-80796774D01*
X102771205Y-80627256D01*
X102849226Y-80438898D01*
X102889000Y-80238939D01*
X102889000Y-80035061D01*
X102849226Y-79835102D01*
X102771205Y-79646744D01*
X102657937Y-79477226D01*
X102513774Y-79333063D01*
X102344256Y-79219795D01*
X102155898Y-79141774D01*
X101955939Y-79102000D01*
X101752061Y-79102000D01*
X101552102Y-79141774D01*
X101363744Y-79219795D01*
X101194226Y-79333063D01*
X101050063Y-79477226D01*
X100936795Y-79646744D01*
X100858774Y-79835102D01*
X100819000Y-80035061D01*
X78955000Y-80035061D01*
X78955000Y-79863740D01*
X78897932Y-79576842D01*
X78785990Y-79306589D01*
X78623475Y-79063368D01*
X78416632Y-78856525D01*
X78242240Y-78740000D01*
X78416632Y-78623475D01*
X78623475Y-78416632D01*
X78785990Y-78173411D01*
X78897932Y-77903158D01*
X78955000Y-77616260D01*
X78955000Y-77323740D01*
X103925000Y-77323740D01*
X103925000Y-77616260D01*
X103982068Y-77903158D01*
X104094010Y-78173411D01*
X104256525Y-78416632D01*
X104463368Y-78623475D01*
X104637760Y-78740000D01*
X104463368Y-78856525D01*
X104256525Y-79063368D01*
X104094010Y-79306589D01*
X103982068Y-79576842D01*
X103925000Y-79863740D01*
X103925000Y-80156260D01*
X103982068Y-80443158D01*
X104094010Y-80713411D01*
X104256525Y-80956632D01*
X104463368Y-81163475D01*
X104637760Y-81280000D01*
X104463368Y-81396525D01*
X104256525Y-81603368D01*
X104094010Y-81846589D01*
X103982068Y-82116842D01*
X103925000Y-82403740D01*
X103925000Y-82696260D01*
X103982068Y-82983158D01*
X104094010Y-83253411D01*
X104256525Y-83496632D01*
X104463368Y-83703475D01*
X104637760Y-83820000D01*
X104463368Y-83936525D01*
X104256525Y-84143368D01*
X104094010Y-84386589D01*
X103982068Y-84656842D01*
X103925000Y-84943740D01*
X103925000Y-85236260D01*
X103982068Y-85523158D01*
X104094010Y-85793411D01*
X104256525Y-86036632D01*
X104463368Y-86243475D01*
X104706589Y-86405990D01*
X104976842Y-86517932D01*
X105263740Y-86575000D01*
X105556260Y-86575000D01*
X105843158Y-86517932D01*
X106113411Y-86405990D01*
X106356632Y-86243475D01*
X106563475Y-86036632D01*
X106725990Y-85793411D01*
X106837932Y-85523158D01*
X106895000Y-85236260D01*
X106895000Y-84943740D01*
X106837932Y-84656842D01*
X106725990Y-84386589D01*
X106563475Y-84143368D01*
X106356632Y-83936525D01*
X106182240Y-83820000D01*
X106356632Y-83703475D01*
X106563475Y-83496632D01*
X106725990Y-83253411D01*
X106837932Y-82983158D01*
X106895000Y-82696260D01*
X106895000Y-82403740D01*
X106837932Y-82116842D01*
X106725990Y-81846589D01*
X106563475Y-81603368D01*
X106356632Y-81396525D01*
X106182240Y-81280000D01*
X106356632Y-81163475D01*
X106563475Y-80956632D01*
X106725990Y-80713411D01*
X106837932Y-80443158D01*
X106895000Y-80156260D01*
X106895000Y-79863740D01*
X106837932Y-79576842D01*
X106725990Y-79306589D01*
X106563475Y-79063368D01*
X106356632Y-78856525D01*
X106182240Y-78740000D01*
X106356632Y-78623475D01*
X106563475Y-78416632D01*
X106725990Y-78173411D01*
X106837932Y-77903158D01*
X106895000Y-77616260D01*
X106895000Y-77323740D01*
X106837932Y-77036842D01*
X106725990Y-76766589D01*
X106563475Y-76523368D01*
X106356632Y-76316525D01*
X106174466Y-76194805D01*
X106291355Y-76125178D01*
X106507588Y-75930269D01*
X106681641Y-75696920D01*
X106806825Y-75434099D01*
X106851476Y-75286890D01*
X106730155Y-75057000D01*
X105537000Y-75057000D01*
X105537000Y-75077000D01*
X105283000Y-75077000D01*
X105283000Y-75057000D01*
X104089845Y-75057000D01*
X103968524Y-75286890D01*
X104013175Y-75434099D01*
X104138359Y-75696920D01*
X104312412Y-75930269D01*
X104528645Y-76125178D01*
X104645534Y-76194805D01*
X104463368Y-76316525D01*
X104256525Y-76523368D01*
X104094010Y-76766589D01*
X103982068Y-77036842D01*
X103925000Y-77323740D01*
X78955000Y-77323740D01*
X78897932Y-77036842D01*
X78785990Y-76766589D01*
X78623475Y-76523368D01*
X78416632Y-76316525D01*
X78242240Y-76200000D01*
X78416632Y-76083475D01*
X78623475Y-75876632D01*
X78785990Y-75633411D01*
X78897932Y-75363158D01*
X78955000Y-75076260D01*
X78955000Y-74783740D01*
X78897932Y-74496842D01*
X78785990Y-74226589D01*
X78623475Y-73983368D01*
X78416632Y-73776525D01*
X78242240Y-73660000D01*
X78416632Y-73543475D01*
X78623475Y-73336632D01*
X78687667Y-73240561D01*
X84245500Y-73240561D01*
X84245500Y-73444439D01*
X84285274Y-73644398D01*
X84363295Y-73832756D01*
X84476563Y-74002274D01*
X84620726Y-74146437D01*
X84790244Y-74259705D01*
X84978602Y-74337726D01*
X85178561Y-74377500D01*
X85382439Y-74377500D01*
X85582398Y-74337726D01*
X85770756Y-74259705D01*
X85940274Y-74146437D01*
X86084437Y-74002274D01*
X86197705Y-73832756D01*
X86275726Y-73644398D01*
X86315500Y-73444439D01*
X86315500Y-73240561D01*
X86275726Y-73040602D01*
X86197705Y-72852244D01*
X86084437Y-72682726D01*
X85940274Y-72538563D01*
X85770756Y-72425295D01*
X85582398Y-72347274D01*
X85382439Y-72307500D01*
X85178561Y-72307500D01*
X84978602Y-72347274D01*
X84790244Y-72425295D01*
X84620726Y-72538563D01*
X84476563Y-72682726D01*
X84363295Y-72852244D01*
X84285274Y-73040602D01*
X84245500Y-73240561D01*
X78687667Y-73240561D01*
X78785990Y-73093411D01*
X78897932Y-72823158D01*
X78955000Y-72536260D01*
X78955000Y-72243740D01*
X78897932Y-71956842D01*
X78785990Y-71686589D01*
X78623475Y-71443368D01*
X78416632Y-71236525D01*
X78242240Y-71120000D01*
X78416632Y-71003475D01*
X78465546Y-70954561D01*
X96691500Y-70954561D01*
X96691500Y-71158439D01*
X96731274Y-71358398D01*
X96809295Y-71546756D01*
X96922563Y-71716274D01*
X97066726Y-71860437D01*
X97236244Y-71973705D01*
X97424602Y-72051726D01*
X97624561Y-72091500D01*
X97828439Y-72091500D01*
X98028398Y-72051726D01*
X98216756Y-71973705D01*
X98386274Y-71860437D01*
X98387127Y-71859584D01*
X98318774Y-72024602D01*
X98279000Y-72224561D01*
X98279000Y-72428439D01*
X98318774Y-72628398D01*
X98396795Y-72816756D01*
X98510063Y-72986274D01*
X98654226Y-73130437D01*
X98823744Y-73243705D01*
X99012102Y-73321726D01*
X99212061Y-73361500D01*
X99415939Y-73361500D01*
X99615898Y-73321726D01*
X99804256Y-73243705D01*
X99973774Y-73130437D01*
X100117937Y-72986274D01*
X100231205Y-72816756D01*
X100309226Y-72628398D01*
X100349000Y-72428439D01*
X100349000Y-72288061D01*
X101835000Y-72288061D01*
X101835000Y-72491939D01*
X101874774Y-72691898D01*
X101952795Y-72880256D01*
X102066063Y-73049774D01*
X102210226Y-73193937D01*
X102379744Y-73307205D01*
X102568102Y-73385226D01*
X102768061Y-73425000D01*
X102971939Y-73425000D01*
X103171898Y-73385226D01*
X103360256Y-73307205D01*
X103529774Y-73193937D01*
X103673937Y-73049774D01*
X103787205Y-72880256D01*
X103865226Y-72691898D01*
X103905000Y-72491939D01*
X103905000Y-72288061D01*
X103865226Y-72088102D01*
X103787205Y-71899744D01*
X103673937Y-71730226D01*
X103529774Y-71586063D01*
X103460836Y-71540000D01*
X103921928Y-71540000D01*
X103921928Y-73240000D01*
X103934188Y-73364482D01*
X103970498Y-73484180D01*
X104029463Y-73594494D01*
X104108815Y-73691185D01*
X104205506Y-73770537D01*
X104315820Y-73829502D01*
X104396466Y-73853966D01*
X104312412Y-73929731D01*
X104138359Y-74163080D01*
X104013175Y-74425901D01*
X103968524Y-74573110D01*
X104089845Y-74803000D01*
X105283000Y-74803000D01*
X105283000Y-74783000D01*
X105537000Y-74783000D01*
X105537000Y-74803000D01*
X106730155Y-74803000D01*
X106851476Y-74573110D01*
X106806825Y-74425901D01*
X106681641Y-74163080D01*
X106507588Y-73929731D01*
X106423534Y-73853966D01*
X106504180Y-73829502D01*
X106614494Y-73770537D01*
X106711185Y-73691185D01*
X106790537Y-73594494D01*
X106849502Y-73484180D01*
X106885812Y-73364482D01*
X106898072Y-73240000D01*
X106898072Y-71540000D01*
X106885812Y-71415518D01*
X106849502Y-71295820D01*
X106790537Y-71185506D01*
X106711185Y-71088815D01*
X106614494Y-71009463D01*
X106504180Y-70950498D01*
X106384482Y-70914188D01*
X106260000Y-70901928D01*
X104560000Y-70901928D01*
X104435518Y-70914188D01*
X104315820Y-70950498D01*
X104205506Y-71009463D01*
X104108815Y-71088815D01*
X104029463Y-71185506D01*
X103970498Y-71295820D01*
X103934188Y-71415518D01*
X103921928Y-71540000D01*
X103460836Y-71540000D01*
X103360256Y-71472795D01*
X103171898Y-71394774D01*
X102971939Y-71355000D01*
X102768061Y-71355000D01*
X102568102Y-71394774D01*
X102379744Y-71472795D01*
X102210226Y-71586063D01*
X102066063Y-71730226D01*
X101952795Y-71899744D01*
X101874774Y-72088102D01*
X101835000Y-72288061D01*
X100349000Y-72288061D01*
X100349000Y-72224561D01*
X100309226Y-72024602D01*
X100231205Y-71836244D01*
X100117937Y-71666726D01*
X99973774Y-71522563D01*
X99804256Y-71409295D01*
X99615898Y-71331274D01*
X99415939Y-71291500D01*
X99212061Y-71291500D01*
X99012102Y-71331274D01*
X98823744Y-71409295D01*
X98654226Y-71522563D01*
X98653373Y-71523416D01*
X98721726Y-71358398D01*
X98761500Y-71158439D01*
X98761500Y-70954561D01*
X98721726Y-70754602D01*
X98643705Y-70566244D01*
X98530437Y-70396726D01*
X98386274Y-70252563D01*
X98216756Y-70139295D01*
X98028398Y-70061274D01*
X97828439Y-70021500D01*
X97624561Y-70021500D01*
X97424602Y-70061274D01*
X97236244Y-70139295D01*
X97066726Y-70252563D01*
X96922563Y-70396726D01*
X96809295Y-70566244D01*
X96731274Y-70754602D01*
X96691500Y-70954561D01*
X78465546Y-70954561D01*
X78623475Y-70796632D01*
X78785990Y-70553411D01*
X78897932Y-70283158D01*
X78955000Y-69996260D01*
X78955000Y-69703740D01*
X78897932Y-69416842D01*
X78785990Y-69146589D01*
X78623475Y-68903368D01*
X78416632Y-68696525D01*
X78242240Y-68580000D01*
X78416632Y-68463475D01*
X78623475Y-68256632D01*
X78785990Y-68013411D01*
X78897932Y-67743158D01*
X78955000Y-67456260D01*
X78955000Y-67163740D01*
X78897932Y-66876842D01*
X78785990Y-66606589D01*
X78623475Y-66363368D01*
X78416632Y-66156525D01*
X78242240Y-66040000D01*
X78416632Y-65923475D01*
X78623475Y-65716632D01*
X78785990Y-65473411D01*
X78897932Y-65203158D01*
X78955000Y-64916260D01*
X78955000Y-64623740D01*
X78897932Y-64336842D01*
X78785990Y-64066589D01*
X78623475Y-63823368D01*
X78416632Y-63616525D01*
X78242240Y-63500000D01*
X78416632Y-63383475D01*
X78623475Y-63176632D01*
X78785990Y-62933411D01*
X78897932Y-62663158D01*
X78955000Y-62376260D01*
X78955000Y-62083740D01*
X78897932Y-61796842D01*
X78785990Y-61526589D01*
X78623475Y-61283368D01*
X78416632Y-61076525D01*
X78242240Y-60960000D01*
X78416632Y-60843475D01*
X78623475Y-60636632D01*
X78785990Y-60393411D01*
X78897932Y-60123158D01*
X78955000Y-59836260D01*
X78955000Y-59543740D01*
X78897932Y-59256842D01*
X78785990Y-58986589D01*
X78623475Y-58743368D01*
X78416632Y-58536525D01*
X78242240Y-58420000D01*
X78416632Y-58303475D01*
X78623475Y-58096632D01*
X78785990Y-57853411D01*
X78897932Y-57583158D01*
X78955000Y-57296260D01*
X78955000Y-57003740D01*
X78897932Y-56716842D01*
X78785990Y-56446589D01*
X78623475Y-56203368D01*
X78491620Y-56071513D01*
X78564180Y-56049502D01*
X78674494Y-55990537D01*
X78771185Y-55911185D01*
X78850537Y-55814494D01*
X78909502Y-55704180D01*
X78945812Y-55584482D01*
X78958072Y-55460000D01*
X78958072Y-53760000D01*
X78945812Y-53635518D01*
X78909502Y-53515820D01*
X78850537Y-53405506D01*
X78817345Y-53365061D01*
X81642000Y-53365061D01*
X81642000Y-53568939D01*
X81681774Y-53768898D01*
X81759795Y-53957256D01*
X81873063Y-54126774D01*
X82017226Y-54270937D01*
X82186744Y-54384205D01*
X82375102Y-54462226D01*
X82575061Y-54502000D01*
X82778939Y-54502000D01*
X82978898Y-54462226D01*
X83167256Y-54384205D01*
X83336774Y-54270937D01*
X83480937Y-54126774D01*
X83594205Y-53957256D01*
X83672226Y-53768898D01*
X83712000Y-53568939D01*
X83712000Y-53365061D01*
X83672226Y-53165102D01*
X83594205Y-52976744D01*
X83480937Y-52807226D01*
X83336774Y-52663063D01*
X83167256Y-52549795D01*
X82978898Y-52471774D01*
X82778939Y-52432000D01*
X82575061Y-52432000D01*
X82375102Y-52471774D01*
X82186744Y-52549795D01*
X82017226Y-52663063D01*
X81873063Y-52807226D01*
X81759795Y-52976744D01*
X81681774Y-53165102D01*
X81642000Y-53365061D01*
X78817345Y-53365061D01*
X78771185Y-53308815D01*
X78674494Y-53229463D01*
X78564180Y-53170498D01*
X78444482Y-53134188D01*
X78320000Y-53121928D01*
X76620000Y-53121928D01*
X76495518Y-53134188D01*
X76375820Y-53170498D01*
X76265506Y-53229463D01*
X76168815Y-53308815D01*
X76089463Y-53405506D01*
X76030498Y-53515820D01*
X75994188Y-53635518D01*
X75981928Y-53760000D01*
X72923000Y-53760000D01*
X72923000Y-51156890D01*
X76028524Y-51156890D01*
X76073175Y-51304099D01*
X76198359Y-51566920D01*
X76372412Y-51800269D01*
X76588645Y-51995178D01*
X76838748Y-52144157D01*
X77113109Y-52241481D01*
X77343000Y-52120814D01*
X77343000Y-50927000D01*
X77597000Y-50927000D01*
X77597000Y-52120814D01*
X77826891Y-52241481D01*
X78101252Y-52144157D01*
X78351355Y-51995178D01*
X78550135Y-51816000D01*
X86487000Y-51816000D01*
X86487000Y-57658000D01*
X86489440Y-57682776D01*
X86496667Y-57706601D01*
X86508403Y-57728557D01*
X86524197Y-57747803D01*
X86543443Y-57763597D01*
X86565399Y-57775333D01*
X86589224Y-57782560D01*
X86614000Y-57785000D01*
X90805000Y-57785000D01*
X90805000Y-64262000D01*
X90807440Y-64286776D01*
X90814667Y-64310601D01*
X90826403Y-64332557D01*
X90842197Y-64351803D01*
X90861443Y-64367597D01*
X90883399Y-64379333D01*
X90907224Y-64386560D01*
X90932000Y-64389000D01*
X91242541Y-64389000D01*
X91138102Y-64409774D01*
X90949744Y-64487795D01*
X90780226Y-64601063D01*
X90636063Y-64745226D01*
X90522795Y-64914744D01*
X90444774Y-65103102D01*
X90405000Y-65303061D01*
X90405000Y-65506939D01*
X90444774Y-65706898D01*
X90522795Y-65895256D01*
X90636063Y-66064774D01*
X90780226Y-66208937D01*
X90949744Y-66322205D01*
X91138102Y-66400226D01*
X91338061Y-66440000D01*
X91541939Y-66440000D01*
X91741898Y-66400226D01*
X91749951Y-66396890D01*
X103968524Y-66396890D01*
X104013175Y-66544099D01*
X104138359Y-66806920D01*
X104312412Y-67040269D01*
X104528645Y-67235178D01*
X104778748Y-67384157D01*
X105053109Y-67481481D01*
X105283000Y-67360814D01*
X105283000Y-66167000D01*
X105537000Y-66167000D01*
X105537000Y-67360814D01*
X105766891Y-67481481D01*
X106041252Y-67384157D01*
X106291355Y-67235178D01*
X106507588Y-67040269D01*
X106681641Y-66806920D01*
X106806825Y-66544099D01*
X106851476Y-66396890D01*
X106730155Y-66167000D01*
X105537000Y-66167000D01*
X105283000Y-66167000D01*
X104089845Y-66167000D01*
X103968524Y-66396890D01*
X91749951Y-66396890D01*
X91930256Y-66322205D01*
X92099774Y-66208937D01*
X92243937Y-66064774D01*
X92357205Y-65895256D01*
X92435226Y-65706898D01*
X92475000Y-65506939D01*
X92475000Y-65303061D01*
X92435226Y-65103102D01*
X92357205Y-64914744D01*
X92243937Y-64745226D01*
X92099774Y-64601063D01*
X91930256Y-64487795D01*
X91741898Y-64409774D01*
X91637459Y-64389000D01*
X93218000Y-64389000D01*
X93242776Y-64386560D01*
X93266601Y-64379333D01*
X93288557Y-64367597D01*
X93307803Y-64351803D01*
X93323597Y-64332557D01*
X93335333Y-64310601D01*
X93342560Y-64286776D01*
X93345000Y-64262000D01*
X93345000Y-62826561D01*
X94342000Y-62826561D01*
X94342000Y-63030439D01*
X94381774Y-63230398D01*
X94459795Y-63418756D01*
X94573063Y-63588274D01*
X94717226Y-63732437D01*
X94886744Y-63845705D01*
X95075102Y-63923726D01*
X95275061Y-63963500D01*
X95478939Y-63963500D01*
X95678898Y-63923726D01*
X95867256Y-63845705D01*
X96036774Y-63732437D01*
X96180937Y-63588274D01*
X96294205Y-63418756D01*
X96372226Y-63230398D01*
X96412000Y-63030439D01*
X96412000Y-62826561D01*
X96372226Y-62626602D01*
X96294205Y-62438244D01*
X96180937Y-62268726D01*
X96036774Y-62124563D01*
X95867256Y-62011295D01*
X95678898Y-61933274D01*
X95478939Y-61893500D01*
X95275061Y-61893500D01*
X95075102Y-61933274D01*
X94886744Y-62011295D01*
X94717226Y-62124563D01*
X94573063Y-62268726D01*
X94459795Y-62438244D01*
X94381774Y-62626602D01*
X94342000Y-62826561D01*
X93345000Y-62826561D01*
X93345000Y-57785000D01*
X97790000Y-57785000D01*
X97814776Y-57782560D01*
X97838601Y-57775333D01*
X97860557Y-57763597D01*
X97879803Y-57747803D01*
X97895597Y-57728557D01*
X97907333Y-57706601D01*
X97914560Y-57682776D01*
X97917000Y-57658000D01*
X97917000Y-51816000D01*
X97914560Y-51791224D01*
X97907333Y-51767399D01*
X97895597Y-51745443D01*
X97879803Y-51726197D01*
X97860557Y-51710403D01*
X97838601Y-51698667D01*
X97814776Y-51691440D01*
X97790000Y-51689000D01*
X86614000Y-51689000D01*
X86589224Y-51691440D01*
X86565399Y-51698667D01*
X86543443Y-51710403D01*
X86524197Y-51726197D01*
X86508403Y-51745443D01*
X86496667Y-51767399D01*
X86489440Y-51791224D01*
X86487000Y-51816000D01*
X78550135Y-51816000D01*
X78567588Y-51800269D01*
X78741641Y-51566920D01*
X78866825Y-51304099D01*
X78911476Y-51156890D01*
X78790155Y-50927000D01*
X77597000Y-50927000D01*
X77343000Y-50927000D01*
X76149845Y-50927000D01*
X76028524Y-51156890D01*
X72923000Y-51156890D01*
X72923000Y-47410000D01*
X75981928Y-47410000D01*
X75981928Y-49110000D01*
X75994188Y-49234482D01*
X76030498Y-49354180D01*
X76089463Y-49464494D01*
X76168815Y-49561185D01*
X76265506Y-49640537D01*
X76375820Y-49699502D01*
X76456466Y-49723966D01*
X76372412Y-49799731D01*
X76198359Y-50033080D01*
X76073175Y-50295901D01*
X76028524Y-50443110D01*
X76149845Y-50673000D01*
X77343000Y-50673000D01*
X77343000Y-50653000D01*
X77597000Y-50653000D01*
X77597000Y-50673000D01*
X78790155Y-50673000D01*
X78911476Y-50443110D01*
X78866825Y-50295901D01*
X78741641Y-50033080D01*
X78567588Y-49799731D01*
X78483534Y-49723966D01*
X78564180Y-49699502D01*
X78674494Y-49640537D01*
X78771185Y-49561185D01*
X78850537Y-49464494D01*
X78909502Y-49354180D01*
X78945812Y-49234482D01*
X78958072Y-49110000D01*
X78958072Y-47650061D01*
X87865000Y-47650061D01*
X87865000Y-47853939D01*
X87904774Y-48053898D01*
X87982795Y-48242256D01*
X87994651Y-48260000D01*
X87982795Y-48277744D01*
X87904774Y-48466102D01*
X87865000Y-48666061D01*
X87865000Y-48869939D01*
X87904774Y-49069898D01*
X87982795Y-49258256D01*
X88096063Y-49427774D01*
X88240226Y-49571937D01*
X88409744Y-49685205D01*
X88598102Y-49763226D01*
X88798061Y-49803000D01*
X89001939Y-49803000D01*
X89201898Y-49763226D01*
X89390256Y-49685205D01*
X89559774Y-49571937D01*
X89703937Y-49427774D01*
X89817205Y-49258256D01*
X89895226Y-49069898D01*
X89935000Y-48869939D01*
X89935000Y-48666061D01*
X89895226Y-48466102D01*
X89817205Y-48277744D01*
X89805349Y-48260000D01*
X89817205Y-48242256D01*
X89895226Y-48053898D01*
X89935000Y-47853939D01*
X89935000Y-47650061D01*
X89895226Y-47450102D01*
X89878616Y-47410000D01*
X103921928Y-47410000D01*
X103921928Y-49110000D01*
X103934188Y-49234482D01*
X103970498Y-49354180D01*
X104029463Y-49464494D01*
X104108815Y-49561185D01*
X104205506Y-49640537D01*
X104315820Y-49699502D01*
X104388380Y-49721513D01*
X104256525Y-49853368D01*
X104094010Y-50096589D01*
X103982068Y-50366842D01*
X103925000Y-50653740D01*
X103925000Y-50946260D01*
X103982068Y-51233158D01*
X104094010Y-51503411D01*
X104256525Y-51746632D01*
X104463368Y-51953475D01*
X104637760Y-52070000D01*
X104463368Y-52186525D01*
X104256525Y-52393368D01*
X104094010Y-52636589D01*
X103982068Y-52906842D01*
X103925000Y-53193740D01*
X103925000Y-53486260D01*
X103982068Y-53773158D01*
X104094010Y-54043411D01*
X104256525Y-54286632D01*
X104463368Y-54493475D01*
X104637760Y-54610000D01*
X104463368Y-54726525D01*
X104256525Y-54933368D01*
X104094010Y-55176589D01*
X103982068Y-55446842D01*
X103925000Y-55733740D01*
X103925000Y-56026260D01*
X103982068Y-56313158D01*
X104094010Y-56583411D01*
X104256525Y-56826632D01*
X104463368Y-57033475D01*
X104637760Y-57150000D01*
X104463368Y-57266525D01*
X104256525Y-57473368D01*
X104094010Y-57716589D01*
X103982068Y-57986842D01*
X103925000Y-58273740D01*
X103925000Y-58566260D01*
X103982068Y-58853158D01*
X104094010Y-59123411D01*
X104256525Y-59366632D01*
X104463368Y-59573475D01*
X104637760Y-59690000D01*
X104463368Y-59806525D01*
X104256525Y-60013368D01*
X104094010Y-60256589D01*
X103982068Y-60526842D01*
X103925000Y-60813740D01*
X103925000Y-61106260D01*
X103982068Y-61393158D01*
X104094010Y-61663411D01*
X104256525Y-61906632D01*
X104463368Y-62113475D01*
X104637760Y-62230000D01*
X104463368Y-62346525D01*
X104256525Y-62553368D01*
X104094010Y-62796589D01*
X103982068Y-63066842D01*
X103925000Y-63353740D01*
X103925000Y-63646260D01*
X103982068Y-63933158D01*
X104094010Y-64203411D01*
X104256525Y-64446632D01*
X104463368Y-64653475D01*
X104645534Y-64775195D01*
X104528645Y-64844822D01*
X104312412Y-65039731D01*
X104138359Y-65273080D01*
X104013175Y-65535901D01*
X103968524Y-65683110D01*
X104089845Y-65913000D01*
X105283000Y-65913000D01*
X105283000Y-65893000D01*
X105537000Y-65893000D01*
X105537000Y-65913000D01*
X106730155Y-65913000D01*
X106851476Y-65683110D01*
X106806825Y-65535901D01*
X106681641Y-65273080D01*
X106507588Y-65039731D01*
X106291355Y-64844822D01*
X106174466Y-64775195D01*
X106356632Y-64653475D01*
X106563475Y-64446632D01*
X106725990Y-64203411D01*
X106837932Y-63933158D01*
X106895000Y-63646260D01*
X106895000Y-63353740D01*
X106837932Y-63066842D01*
X106725990Y-62796589D01*
X106563475Y-62553368D01*
X106356632Y-62346525D01*
X106182240Y-62230000D01*
X106356632Y-62113475D01*
X106563475Y-61906632D01*
X106725990Y-61663411D01*
X106837932Y-61393158D01*
X106895000Y-61106260D01*
X106895000Y-60813740D01*
X106837932Y-60526842D01*
X106725990Y-60256589D01*
X106563475Y-60013368D01*
X106356632Y-59806525D01*
X106182240Y-59690000D01*
X106356632Y-59573475D01*
X106563475Y-59366632D01*
X106725990Y-59123411D01*
X106837932Y-58853158D01*
X106895000Y-58566260D01*
X106895000Y-58273740D01*
X106837932Y-57986842D01*
X106725990Y-57716589D01*
X106563475Y-57473368D01*
X106356632Y-57266525D01*
X106182240Y-57150000D01*
X106356632Y-57033475D01*
X106563475Y-56826632D01*
X106725990Y-56583411D01*
X106837932Y-56313158D01*
X106895000Y-56026260D01*
X106895000Y-55733740D01*
X106837932Y-55446842D01*
X106725990Y-55176589D01*
X106563475Y-54933368D01*
X106356632Y-54726525D01*
X106182240Y-54610000D01*
X106356632Y-54493475D01*
X106563475Y-54286632D01*
X106725990Y-54043411D01*
X106837932Y-53773158D01*
X106895000Y-53486260D01*
X106895000Y-53193740D01*
X106837932Y-52906842D01*
X106725990Y-52636589D01*
X106563475Y-52393368D01*
X106356632Y-52186525D01*
X106182240Y-52070000D01*
X106356632Y-51953475D01*
X106563475Y-51746632D01*
X106725990Y-51503411D01*
X106837932Y-51233158D01*
X106895000Y-50946260D01*
X106895000Y-50653740D01*
X106837932Y-50366842D01*
X106725990Y-50096589D01*
X106563475Y-49853368D01*
X106431620Y-49721513D01*
X106504180Y-49699502D01*
X106614494Y-49640537D01*
X106711185Y-49561185D01*
X106790537Y-49464494D01*
X106849502Y-49354180D01*
X106885812Y-49234482D01*
X106898072Y-49110000D01*
X106898072Y-47410000D01*
X106885812Y-47285518D01*
X106849502Y-47165820D01*
X106790537Y-47055506D01*
X106711185Y-46958815D01*
X106614494Y-46879463D01*
X106504180Y-46820498D01*
X106384482Y-46784188D01*
X106260000Y-46771928D01*
X104560000Y-46771928D01*
X104435518Y-46784188D01*
X104315820Y-46820498D01*
X104205506Y-46879463D01*
X104108815Y-46958815D01*
X104029463Y-47055506D01*
X103970498Y-47165820D01*
X103934188Y-47285518D01*
X103921928Y-47410000D01*
X89878616Y-47410000D01*
X89817205Y-47261744D01*
X89703937Y-47092226D01*
X89559774Y-46948063D01*
X89390256Y-46834795D01*
X89201898Y-46756774D01*
X89001939Y-46717000D01*
X88798061Y-46717000D01*
X88598102Y-46756774D01*
X88409744Y-46834795D01*
X88240226Y-46948063D01*
X88096063Y-47092226D01*
X87982795Y-47261744D01*
X87904774Y-47450102D01*
X87865000Y-47650061D01*
X78958072Y-47650061D01*
X78958072Y-47410000D01*
X78945812Y-47285518D01*
X78909502Y-47165820D01*
X78850537Y-47055506D01*
X78771185Y-46958815D01*
X78674494Y-46879463D01*
X78564180Y-46820498D01*
X78444482Y-46784188D01*
X78320000Y-46771928D01*
X76620000Y-46771928D01*
X76495518Y-46784188D01*
X76375820Y-46820498D01*
X76265506Y-46879463D01*
X76168815Y-46958815D01*
X76089463Y-47055506D01*
X76030498Y-47165820D01*
X75994188Y-47285518D01*
X75981928Y-47410000D01*
X72923000Y-47410000D01*
X72923000Y-46133279D01*
X72944978Y-45909128D01*
X73000701Y-45724565D01*
X73091212Y-45554340D01*
X73213060Y-45404939D01*
X73361611Y-45282047D01*
X73531202Y-45190350D01*
X73715372Y-45133340D01*
X73937439Y-45110000D01*
X108806721Y-45110000D01*
X109030872Y-45131978D01*
G04 #@! TA.AperFunction,Conductor*
D15*
G36*
X109030872Y-45131978D02*
G01*
X109215435Y-45187701D01*
X109385660Y-45278212D01*
X109535061Y-45400060D01*
X109657953Y-45548611D01*
X109749650Y-45718202D01*
X109806660Y-45902372D01*
X109830000Y-46124439D01*
X109830001Y-88613711D01*
X109808022Y-88837873D01*
X109752300Y-89022434D01*
X109661788Y-89192661D01*
X109539942Y-89342059D01*
X109391388Y-89464953D01*
X109221800Y-89556649D01*
X109037632Y-89613659D01*
X108815560Y-89637000D01*
X73946279Y-89637000D01*
X73722127Y-89615022D01*
X73537566Y-89559300D01*
X73367339Y-89468788D01*
X73217941Y-89346942D01*
X73095047Y-89198388D01*
X73003351Y-89028800D01*
X72946341Y-88844632D01*
X72923000Y-88622560D01*
X72923000Y-53760000D01*
X75981928Y-53760000D01*
X75981928Y-55460000D01*
X75994188Y-55584482D01*
X76030498Y-55704180D01*
X76089463Y-55814494D01*
X76168815Y-55911185D01*
X76265506Y-55990537D01*
X76375820Y-56049502D01*
X76448380Y-56071513D01*
X76316525Y-56203368D01*
X76154010Y-56446589D01*
X76042068Y-56716842D01*
X75985000Y-57003740D01*
X75985000Y-57296260D01*
X76042068Y-57583158D01*
X76154010Y-57853411D01*
X76316525Y-58096632D01*
X76523368Y-58303475D01*
X76697760Y-58420000D01*
X76523368Y-58536525D01*
X76316525Y-58743368D01*
X76154010Y-58986589D01*
X76042068Y-59256842D01*
X75985000Y-59543740D01*
X75985000Y-59836260D01*
X76042068Y-60123158D01*
X76154010Y-60393411D01*
X76316525Y-60636632D01*
X76523368Y-60843475D01*
X76697760Y-60960000D01*
X76523368Y-61076525D01*
X76316525Y-61283368D01*
X76154010Y-61526589D01*
X76042068Y-61796842D01*
X75985000Y-62083740D01*
X75985000Y-62376260D01*
X76042068Y-62663158D01*
X76154010Y-62933411D01*
X76316525Y-63176632D01*
X76523368Y-63383475D01*
X76697760Y-63500000D01*
X76523368Y-63616525D01*
X76316525Y-63823368D01*
X76154010Y-64066589D01*
X76042068Y-64336842D01*
X75985000Y-64623740D01*
X75985000Y-64916260D01*
X76042068Y-65203158D01*
X76154010Y-65473411D01*
X76316525Y-65716632D01*
X76523368Y-65923475D01*
X76697760Y-66040000D01*
X76523368Y-66156525D01*
X76316525Y-66363368D01*
X76154010Y-66606589D01*
X76042068Y-66876842D01*
X75985000Y-67163740D01*
X75985000Y-67456260D01*
X76042068Y-67743158D01*
X76154010Y-68013411D01*
X76316525Y-68256632D01*
X76523368Y-68463475D01*
X76697760Y-68580000D01*
X76523368Y-68696525D01*
X76316525Y-68903368D01*
X76154010Y-69146589D01*
X76042068Y-69416842D01*
X75985000Y-69703740D01*
X75985000Y-69996260D01*
X76042068Y-70283158D01*
X76154010Y-70553411D01*
X76316525Y-70796632D01*
X76523368Y-71003475D01*
X76697760Y-71120000D01*
X76523368Y-71236525D01*
X76316525Y-71443368D01*
X76154010Y-71686589D01*
X76042068Y-71956842D01*
X75985000Y-72243740D01*
X75985000Y-72536260D01*
X76042068Y-72823158D01*
X76154010Y-73093411D01*
X76316525Y-73336632D01*
X76523368Y-73543475D01*
X76697760Y-73660000D01*
X76523368Y-73776525D01*
X76316525Y-73983368D01*
X76154010Y-74226589D01*
X76042068Y-74496842D01*
X75985000Y-74783740D01*
X75985000Y-75076260D01*
X76042068Y-75363158D01*
X76154010Y-75633411D01*
X76316525Y-75876632D01*
X76523368Y-76083475D01*
X76697760Y-76200000D01*
X76523368Y-76316525D01*
X76316525Y-76523368D01*
X76154010Y-76766589D01*
X76042068Y-77036842D01*
X75985000Y-77323740D01*
X75985000Y-77616260D01*
X76042068Y-77903158D01*
X76154010Y-78173411D01*
X76316525Y-78416632D01*
X76523368Y-78623475D01*
X76697760Y-78740000D01*
X76523368Y-78856525D01*
X76316525Y-79063368D01*
X76154010Y-79306589D01*
X76042068Y-79576842D01*
X75985000Y-79863740D01*
X75985000Y-80156260D01*
X76042068Y-80443158D01*
X76154010Y-80713411D01*
X76316525Y-80956632D01*
X76523368Y-81163475D01*
X76697760Y-81280000D01*
X76523368Y-81396525D01*
X76316525Y-81603368D01*
X76154010Y-81846589D01*
X76042068Y-82116842D01*
X75985000Y-82403740D01*
X75985000Y-82696260D01*
X76042068Y-82983158D01*
X76154010Y-83253411D01*
X76316525Y-83496632D01*
X76523368Y-83703475D01*
X76697760Y-83820000D01*
X76523368Y-83936525D01*
X76316525Y-84143368D01*
X76154010Y-84386589D01*
X76042068Y-84656842D01*
X75985000Y-84943740D01*
X75985000Y-85236260D01*
X76042068Y-85523158D01*
X76154010Y-85793411D01*
X76316525Y-86036632D01*
X76523368Y-86243475D01*
X76766589Y-86405990D01*
X77036842Y-86517932D01*
X77323740Y-86575000D01*
X77616260Y-86575000D01*
X77903158Y-86517932D01*
X78173411Y-86405990D01*
X78416632Y-86243475D01*
X78623475Y-86036632D01*
X78785990Y-85793411D01*
X78897932Y-85523158D01*
X78955000Y-85236260D01*
X78955000Y-84943740D01*
X79795000Y-84943740D01*
X79795000Y-85236260D01*
X79852068Y-85523158D01*
X79964010Y-85793411D01*
X80126525Y-86036632D01*
X80333368Y-86243475D01*
X80576589Y-86405990D01*
X80846842Y-86517932D01*
X81133740Y-86575000D01*
X81426260Y-86575000D01*
X81713158Y-86517932D01*
X81983411Y-86405990D01*
X82226632Y-86243475D01*
X82433475Y-86036632D01*
X82550000Y-85862240D01*
X82666525Y-86036632D01*
X82873368Y-86243475D01*
X83116589Y-86405990D01*
X83386842Y-86517932D01*
X83673740Y-86575000D01*
X83966260Y-86575000D01*
X84253158Y-86517932D01*
X84523411Y-86405990D01*
X84766632Y-86243475D01*
X84973475Y-86036632D01*
X85090000Y-85862240D01*
X85206525Y-86036632D01*
X85413368Y-86243475D01*
X85656589Y-86405990D01*
X85926842Y-86517932D01*
X86213740Y-86575000D01*
X86506260Y-86575000D01*
X86793158Y-86517932D01*
X87063411Y-86405990D01*
X87306632Y-86243475D01*
X87513475Y-86036632D01*
X87630000Y-85862240D01*
X87746525Y-86036632D01*
X87953368Y-86243475D01*
X88196589Y-86405990D01*
X88466842Y-86517932D01*
X88753740Y-86575000D01*
X89046260Y-86575000D01*
X89333158Y-86517932D01*
X89603411Y-86405990D01*
X89846632Y-86243475D01*
X90053475Y-86036632D01*
X90170000Y-85862240D01*
X90286525Y-86036632D01*
X90493368Y-86243475D01*
X90736589Y-86405990D01*
X91006842Y-86517932D01*
X91293740Y-86575000D01*
X91586260Y-86575000D01*
X91873158Y-86517932D01*
X92143411Y-86405990D01*
X92386632Y-86243475D01*
X92593475Y-86036632D01*
X92710000Y-85862240D01*
X92826525Y-86036632D01*
X93033368Y-86243475D01*
X93276589Y-86405990D01*
X93546842Y-86517932D01*
X93833740Y-86575000D01*
X94126260Y-86575000D01*
X94413158Y-86517932D01*
X94683411Y-86405990D01*
X94926632Y-86243475D01*
X95133475Y-86036632D01*
X95250000Y-85862240D01*
X95366525Y-86036632D01*
X95573368Y-86243475D01*
X95816589Y-86405990D01*
X96086842Y-86517932D01*
X96373740Y-86575000D01*
X96666260Y-86575000D01*
X96953158Y-86517932D01*
X97223411Y-86405990D01*
X97466632Y-86243475D01*
X97673475Y-86036632D01*
X97790000Y-85862240D01*
X97906525Y-86036632D01*
X98113368Y-86243475D01*
X98356589Y-86405990D01*
X98626842Y-86517932D01*
X98913740Y-86575000D01*
X99206260Y-86575000D01*
X99493158Y-86517932D01*
X99763411Y-86405990D01*
X100006632Y-86243475D01*
X100138487Y-86111620D01*
X100160498Y-86184180D01*
X100219463Y-86294494D01*
X100298815Y-86391185D01*
X100395506Y-86470537D01*
X100505820Y-86529502D01*
X100625518Y-86565812D01*
X100750000Y-86578072D01*
X102450000Y-86578072D01*
X102574482Y-86565812D01*
X102694180Y-86529502D01*
X102804494Y-86470537D01*
X102901185Y-86391185D01*
X102980537Y-86294494D01*
X103039502Y-86184180D01*
X103075812Y-86064482D01*
X103088072Y-85940000D01*
X103088072Y-84240000D01*
X103075812Y-84115518D01*
X103039502Y-83995820D01*
X102980537Y-83885506D01*
X102901185Y-83788815D01*
X102804494Y-83709463D01*
X102694180Y-83650498D01*
X102574482Y-83614188D01*
X102450000Y-83601928D01*
X100750000Y-83601928D01*
X100625518Y-83614188D01*
X100505820Y-83650498D01*
X100395506Y-83709463D01*
X100298815Y-83788815D01*
X100219463Y-83885506D01*
X100160498Y-83995820D01*
X100138487Y-84068380D01*
X100006632Y-83936525D01*
X99763411Y-83774010D01*
X99493158Y-83662068D01*
X99206260Y-83605000D01*
X98913740Y-83605000D01*
X98626842Y-83662068D01*
X98356589Y-83774010D01*
X98113368Y-83936525D01*
X97906525Y-84143368D01*
X97790000Y-84317760D01*
X97673475Y-84143368D01*
X97466632Y-83936525D01*
X97223411Y-83774010D01*
X96953158Y-83662068D01*
X96666260Y-83605000D01*
X96373740Y-83605000D01*
X96086842Y-83662068D01*
X95816589Y-83774010D01*
X95573368Y-83936525D01*
X95366525Y-84143368D01*
X95250000Y-84317760D01*
X95133475Y-84143368D01*
X94926632Y-83936525D01*
X94683411Y-83774010D01*
X94413158Y-83662068D01*
X94126260Y-83605000D01*
X93833740Y-83605000D01*
X93546842Y-83662068D01*
X93276589Y-83774010D01*
X93033368Y-83936525D01*
X92826525Y-84143368D01*
X92710000Y-84317760D01*
X92593475Y-84143368D01*
X92386632Y-83936525D01*
X92143411Y-83774010D01*
X91873158Y-83662068D01*
X91586260Y-83605000D01*
X91293740Y-83605000D01*
X91006842Y-83662068D01*
X90736589Y-83774010D01*
X90493368Y-83936525D01*
X90286525Y-84143368D01*
X90170000Y-84317760D01*
X90053475Y-84143368D01*
X89846632Y-83936525D01*
X89603411Y-83774010D01*
X89333158Y-83662068D01*
X89046260Y-83605000D01*
X88753740Y-83605000D01*
X88466842Y-83662068D01*
X88196589Y-83774010D01*
X87953368Y-83936525D01*
X87746525Y-84143368D01*
X87630000Y-84317760D01*
X87513475Y-84143368D01*
X87306632Y-83936525D01*
X87063411Y-83774010D01*
X86793158Y-83662068D01*
X86506260Y-83605000D01*
X86213740Y-83605000D01*
X85926842Y-83662068D01*
X85656589Y-83774010D01*
X85413368Y-83936525D01*
X85206525Y-84143368D01*
X85090000Y-84317760D01*
X84973475Y-84143368D01*
X84766632Y-83936525D01*
X84523411Y-83774010D01*
X84253158Y-83662068D01*
X83966260Y-83605000D01*
X83673740Y-83605000D01*
X83386842Y-83662068D01*
X83116589Y-83774010D01*
X82873368Y-83936525D01*
X82666525Y-84143368D01*
X82550000Y-84317760D01*
X82433475Y-84143368D01*
X82226632Y-83936525D01*
X81983411Y-83774010D01*
X81713158Y-83662068D01*
X81426260Y-83605000D01*
X81133740Y-83605000D01*
X80846842Y-83662068D01*
X80576589Y-83774010D01*
X80333368Y-83936525D01*
X80126525Y-84143368D01*
X79964010Y-84386589D01*
X79852068Y-84656842D01*
X79795000Y-84943740D01*
X78955000Y-84943740D01*
X78897932Y-84656842D01*
X78785990Y-84386589D01*
X78623475Y-84143368D01*
X78416632Y-83936525D01*
X78242240Y-83820000D01*
X78416632Y-83703475D01*
X78623475Y-83496632D01*
X78785990Y-83253411D01*
X78897932Y-82983158D01*
X78955000Y-82696260D01*
X78955000Y-82403740D01*
X78897932Y-82116842D01*
X78785990Y-81846589D01*
X78623475Y-81603368D01*
X78416632Y-81396525D01*
X78242240Y-81280000D01*
X78416632Y-81163475D01*
X78623475Y-80956632D01*
X78785990Y-80713411D01*
X78897932Y-80443158D01*
X78955000Y-80156260D01*
X78955000Y-80035061D01*
X100819000Y-80035061D01*
X100819000Y-80238939D01*
X100858774Y-80438898D01*
X100936795Y-80627256D01*
X101050063Y-80796774D01*
X101194226Y-80940937D01*
X101363744Y-81054205D01*
X101552102Y-81132226D01*
X101752061Y-81172000D01*
X101955939Y-81172000D01*
X102155898Y-81132226D01*
X102344256Y-81054205D01*
X102513774Y-80940937D01*
X102657937Y-80796774D01*
X102771205Y-80627256D01*
X102849226Y-80438898D01*
X102889000Y-80238939D01*
X102889000Y-80035061D01*
X102849226Y-79835102D01*
X102771205Y-79646744D01*
X102657937Y-79477226D01*
X102513774Y-79333063D01*
X102344256Y-79219795D01*
X102155898Y-79141774D01*
X101955939Y-79102000D01*
X101752061Y-79102000D01*
X101552102Y-79141774D01*
X101363744Y-79219795D01*
X101194226Y-79333063D01*
X101050063Y-79477226D01*
X100936795Y-79646744D01*
X100858774Y-79835102D01*
X100819000Y-80035061D01*
X78955000Y-80035061D01*
X78955000Y-79863740D01*
X78897932Y-79576842D01*
X78785990Y-79306589D01*
X78623475Y-79063368D01*
X78416632Y-78856525D01*
X78242240Y-78740000D01*
X78416632Y-78623475D01*
X78623475Y-78416632D01*
X78785990Y-78173411D01*
X78897932Y-77903158D01*
X78955000Y-77616260D01*
X78955000Y-77323740D01*
X103925000Y-77323740D01*
X103925000Y-77616260D01*
X103982068Y-77903158D01*
X104094010Y-78173411D01*
X104256525Y-78416632D01*
X104463368Y-78623475D01*
X104637760Y-78740000D01*
X104463368Y-78856525D01*
X104256525Y-79063368D01*
X104094010Y-79306589D01*
X103982068Y-79576842D01*
X103925000Y-79863740D01*
X103925000Y-80156260D01*
X103982068Y-80443158D01*
X104094010Y-80713411D01*
X104256525Y-80956632D01*
X104463368Y-81163475D01*
X104637760Y-81280000D01*
X104463368Y-81396525D01*
X104256525Y-81603368D01*
X104094010Y-81846589D01*
X103982068Y-82116842D01*
X103925000Y-82403740D01*
X103925000Y-82696260D01*
X103982068Y-82983158D01*
X104094010Y-83253411D01*
X104256525Y-83496632D01*
X104463368Y-83703475D01*
X104637760Y-83820000D01*
X104463368Y-83936525D01*
X104256525Y-84143368D01*
X104094010Y-84386589D01*
X103982068Y-84656842D01*
X103925000Y-84943740D01*
X103925000Y-85236260D01*
X103982068Y-85523158D01*
X104094010Y-85793411D01*
X104256525Y-86036632D01*
X104463368Y-86243475D01*
X104706589Y-86405990D01*
X104976842Y-86517932D01*
X105263740Y-86575000D01*
X105556260Y-86575000D01*
X105843158Y-86517932D01*
X106113411Y-86405990D01*
X106356632Y-86243475D01*
X106563475Y-86036632D01*
X106725990Y-85793411D01*
X106837932Y-85523158D01*
X106895000Y-85236260D01*
X106895000Y-84943740D01*
X106837932Y-84656842D01*
X106725990Y-84386589D01*
X106563475Y-84143368D01*
X106356632Y-83936525D01*
X106182240Y-83820000D01*
X106356632Y-83703475D01*
X106563475Y-83496632D01*
X106725990Y-83253411D01*
X106837932Y-82983158D01*
X106895000Y-82696260D01*
X106895000Y-82403740D01*
X106837932Y-82116842D01*
X106725990Y-81846589D01*
X106563475Y-81603368D01*
X106356632Y-81396525D01*
X106182240Y-81280000D01*
X106356632Y-81163475D01*
X106563475Y-80956632D01*
X106725990Y-80713411D01*
X106837932Y-80443158D01*
X106895000Y-80156260D01*
X106895000Y-79863740D01*
X106837932Y-79576842D01*
X106725990Y-79306589D01*
X106563475Y-79063368D01*
X106356632Y-78856525D01*
X106182240Y-78740000D01*
X106356632Y-78623475D01*
X106563475Y-78416632D01*
X106725990Y-78173411D01*
X106837932Y-77903158D01*
X106895000Y-77616260D01*
X106895000Y-77323740D01*
X106837932Y-77036842D01*
X106725990Y-76766589D01*
X106563475Y-76523368D01*
X106356632Y-76316525D01*
X106174466Y-76194805D01*
X106291355Y-76125178D01*
X106507588Y-75930269D01*
X106681641Y-75696920D01*
X106806825Y-75434099D01*
X106851476Y-75286890D01*
X106730155Y-75057000D01*
X105537000Y-75057000D01*
X105537000Y-75077000D01*
X105283000Y-75077000D01*
X105283000Y-75057000D01*
X104089845Y-75057000D01*
X103968524Y-75286890D01*
X104013175Y-75434099D01*
X104138359Y-75696920D01*
X104312412Y-75930269D01*
X104528645Y-76125178D01*
X104645534Y-76194805D01*
X104463368Y-76316525D01*
X104256525Y-76523368D01*
X104094010Y-76766589D01*
X103982068Y-77036842D01*
X103925000Y-77323740D01*
X78955000Y-77323740D01*
X78897932Y-77036842D01*
X78785990Y-76766589D01*
X78623475Y-76523368D01*
X78416632Y-76316525D01*
X78242240Y-76200000D01*
X78416632Y-76083475D01*
X78623475Y-75876632D01*
X78785990Y-75633411D01*
X78897932Y-75363158D01*
X78955000Y-75076260D01*
X78955000Y-74783740D01*
X78897932Y-74496842D01*
X78785990Y-74226589D01*
X78623475Y-73983368D01*
X78416632Y-73776525D01*
X78242240Y-73660000D01*
X78416632Y-73543475D01*
X78623475Y-73336632D01*
X78687667Y-73240561D01*
X84245500Y-73240561D01*
X84245500Y-73444439D01*
X84285274Y-73644398D01*
X84363295Y-73832756D01*
X84476563Y-74002274D01*
X84620726Y-74146437D01*
X84790244Y-74259705D01*
X84978602Y-74337726D01*
X85178561Y-74377500D01*
X85382439Y-74377500D01*
X85582398Y-74337726D01*
X85770756Y-74259705D01*
X85940274Y-74146437D01*
X86084437Y-74002274D01*
X86197705Y-73832756D01*
X86275726Y-73644398D01*
X86315500Y-73444439D01*
X86315500Y-73240561D01*
X86275726Y-73040602D01*
X86197705Y-72852244D01*
X86084437Y-72682726D01*
X85940274Y-72538563D01*
X85770756Y-72425295D01*
X85582398Y-72347274D01*
X85382439Y-72307500D01*
X85178561Y-72307500D01*
X84978602Y-72347274D01*
X84790244Y-72425295D01*
X84620726Y-72538563D01*
X84476563Y-72682726D01*
X84363295Y-72852244D01*
X84285274Y-73040602D01*
X84245500Y-73240561D01*
X78687667Y-73240561D01*
X78785990Y-73093411D01*
X78897932Y-72823158D01*
X78955000Y-72536260D01*
X78955000Y-72243740D01*
X78897932Y-71956842D01*
X78785990Y-71686589D01*
X78623475Y-71443368D01*
X78416632Y-71236525D01*
X78242240Y-71120000D01*
X78416632Y-71003475D01*
X78465546Y-70954561D01*
X96691500Y-70954561D01*
X96691500Y-71158439D01*
X96731274Y-71358398D01*
X96809295Y-71546756D01*
X96922563Y-71716274D01*
X97066726Y-71860437D01*
X97236244Y-71973705D01*
X97424602Y-72051726D01*
X97624561Y-72091500D01*
X97828439Y-72091500D01*
X98028398Y-72051726D01*
X98216756Y-71973705D01*
X98386274Y-71860437D01*
X98387127Y-71859584D01*
X98318774Y-72024602D01*
X98279000Y-72224561D01*
X98279000Y-72428439D01*
X98318774Y-72628398D01*
X98396795Y-72816756D01*
X98510063Y-72986274D01*
X98654226Y-73130437D01*
X98823744Y-73243705D01*
X99012102Y-73321726D01*
X99212061Y-73361500D01*
X99415939Y-73361500D01*
X99615898Y-73321726D01*
X99804256Y-73243705D01*
X99973774Y-73130437D01*
X100117937Y-72986274D01*
X100231205Y-72816756D01*
X100309226Y-72628398D01*
X100349000Y-72428439D01*
X100349000Y-72288061D01*
X101835000Y-72288061D01*
X101835000Y-72491939D01*
X101874774Y-72691898D01*
X101952795Y-72880256D01*
X102066063Y-73049774D01*
X102210226Y-73193937D01*
X102379744Y-73307205D01*
X102568102Y-73385226D01*
X102768061Y-73425000D01*
X102971939Y-73425000D01*
X103171898Y-73385226D01*
X103360256Y-73307205D01*
X103529774Y-73193937D01*
X103673937Y-73049774D01*
X103787205Y-72880256D01*
X103865226Y-72691898D01*
X103905000Y-72491939D01*
X103905000Y-72288061D01*
X103865226Y-72088102D01*
X103787205Y-71899744D01*
X103673937Y-71730226D01*
X103529774Y-71586063D01*
X103460836Y-71540000D01*
X103921928Y-71540000D01*
X103921928Y-73240000D01*
X103934188Y-73364482D01*
X103970498Y-73484180D01*
X104029463Y-73594494D01*
X104108815Y-73691185D01*
X104205506Y-73770537D01*
X104315820Y-73829502D01*
X104396466Y-73853966D01*
X104312412Y-73929731D01*
X104138359Y-74163080D01*
X104013175Y-74425901D01*
X103968524Y-74573110D01*
X104089845Y-74803000D01*
X105283000Y-74803000D01*
X105283000Y-74783000D01*
X105537000Y-74783000D01*
X105537000Y-74803000D01*
X106730155Y-74803000D01*
X106851476Y-74573110D01*
X106806825Y-74425901D01*
X106681641Y-74163080D01*
X106507588Y-73929731D01*
X106423534Y-73853966D01*
X106504180Y-73829502D01*
X106614494Y-73770537D01*
X106711185Y-73691185D01*
X106790537Y-73594494D01*
X106849502Y-73484180D01*
X106885812Y-73364482D01*
X106898072Y-73240000D01*
X106898072Y-71540000D01*
X106885812Y-71415518D01*
X106849502Y-71295820D01*
X106790537Y-71185506D01*
X106711185Y-71088815D01*
X106614494Y-71009463D01*
X106504180Y-70950498D01*
X106384482Y-70914188D01*
X106260000Y-70901928D01*
X104560000Y-70901928D01*
X104435518Y-70914188D01*
X104315820Y-70950498D01*
X104205506Y-71009463D01*
X104108815Y-71088815D01*
X104029463Y-71185506D01*
X103970498Y-71295820D01*
X103934188Y-71415518D01*
X103921928Y-71540000D01*
X103460836Y-71540000D01*
X103360256Y-71472795D01*
X103171898Y-71394774D01*
X102971939Y-71355000D01*
X102768061Y-71355000D01*
X102568102Y-71394774D01*
X102379744Y-71472795D01*
X102210226Y-71586063D01*
X102066063Y-71730226D01*
X101952795Y-71899744D01*
X101874774Y-72088102D01*
X101835000Y-72288061D01*
X100349000Y-72288061D01*
X100349000Y-72224561D01*
X100309226Y-72024602D01*
X100231205Y-71836244D01*
X100117937Y-71666726D01*
X99973774Y-71522563D01*
X99804256Y-71409295D01*
X99615898Y-71331274D01*
X99415939Y-71291500D01*
X99212061Y-71291500D01*
X99012102Y-71331274D01*
X98823744Y-71409295D01*
X98654226Y-71522563D01*
X98653373Y-71523416D01*
X98721726Y-71358398D01*
X98761500Y-71158439D01*
X98761500Y-70954561D01*
X98721726Y-70754602D01*
X98643705Y-70566244D01*
X98530437Y-70396726D01*
X98386274Y-70252563D01*
X98216756Y-70139295D01*
X98028398Y-70061274D01*
X97828439Y-70021500D01*
X97624561Y-70021500D01*
X97424602Y-70061274D01*
X97236244Y-70139295D01*
X97066726Y-70252563D01*
X96922563Y-70396726D01*
X96809295Y-70566244D01*
X96731274Y-70754602D01*
X96691500Y-70954561D01*
X78465546Y-70954561D01*
X78623475Y-70796632D01*
X78785990Y-70553411D01*
X78897932Y-70283158D01*
X78955000Y-69996260D01*
X78955000Y-69703740D01*
X78897932Y-69416842D01*
X78785990Y-69146589D01*
X78623475Y-68903368D01*
X78416632Y-68696525D01*
X78242240Y-68580000D01*
X78416632Y-68463475D01*
X78623475Y-68256632D01*
X78785990Y-68013411D01*
X78897932Y-67743158D01*
X78955000Y-67456260D01*
X78955000Y-67163740D01*
X78897932Y-66876842D01*
X78785990Y-66606589D01*
X78623475Y-66363368D01*
X78416632Y-66156525D01*
X78242240Y-66040000D01*
X78416632Y-65923475D01*
X78623475Y-65716632D01*
X78785990Y-65473411D01*
X78897932Y-65203158D01*
X78955000Y-64916260D01*
X78955000Y-64623740D01*
X78897932Y-64336842D01*
X78785990Y-64066589D01*
X78623475Y-63823368D01*
X78416632Y-63616525D01*
X78242240Y-63500000D01*
X78416632Y-63383475D01*
X78623475Y-63176632D01*
X78785990Y-62933411D01*
X78897932Y-62663158D01*
X78955000Y-62376260D01*
X78955000Y-62083740D01*
X78897932Y-61796842D01*
X78785990Y-61526589D01*
X78623475Y-61283368D01*
X78416632Y-61076525D01*
X78242240Y-60960000D01*
X78416632Y-60843475D01*
X78623475Y-60636632D01*
X78785990Y-60393411D01*
X78897932Y-60123158D01*
X78955000Y-59836260D01*
X78955000Y-59543740D01*
X78897932Y-59256842D01*
X78785990Y-58986589D01*
X78623475Y-58743368D01*
X78416632Y-58536525D01*
X78242240Y-58420000D01*
X78416632Y-58303475D01*
X78623475Y-58096632D01*
X78785990Y-57853411D01*
X78897932Y-57583158D01*
X78955000Y-57296260D01*
X78955000Y-57003740D01*
X78897932Y-56716842D01*
X78785990Y-56446589D01*
X78623475Y-56203368D01*
X78491620Y-56071513D01*
X78564180Y-56049502D01*
X78674494Y-55990537D01*
X78771185Y-55911185D01*
X78850537Y-55814494D01*
X78909502Y-55704180D01*
X78945812Y-55584482D01*
X78958072Y-55460000D01*
X78958072Y-53760000D01*
X78945812Y-53635518D01*
X78909502Y-53515820D01*
X78850537Y-53405506D01*
X78817345Y-53365061D01*
X81642000Y-53365061D01*
X81642000Y-53568939D01*
X81681774Y-53768898D01*
X81759795Y-53957256D01*
X81873063Y-54126774D01*
X82017226Y-54270937D01*
X82186744Y-54384205D01*
X82375102Y-54462226D01*
X82575061Y-54502000D01*
X82778939Y-54502000D01*
X82978898Y-54462226D01*
X83167256Y-54384205D01*
X83336774Y-54270937D01*
X83480937Y-54126774D01*
X83594205Y-53957256D01*
X83672226Y-53768898D01*
X83712000Y-53568939D01*
X83712000Y-53365061D01*
X83672226Y-53165102D01*
X83594205Y-52976744D01*
X83480937Y-52807226D01*
X83336774Y-52663063D01*
X83167256Y-52549795D01*
X82978898Y-52471774D01*
X82778939Y-52432000D01*
X82575061Y-52432000D01*
X82375102Y-52471774D01*
X82186744Y-52549795D01*
X82017226Y-52663063D01*
X81873063Y-52807226D01*
X81759795Y-52976744D01*
X81681774Y-53165102D01*
X81642000Y-53365061D01*
X78817345Y-53365061D01*
X78771185Y-53308815D01*
X78674494Y-53229463D01*
X78564180Y-53170498D01*
X78444482Y-53134188D01*
X78320000Y-53121928D01*
X76620000Y-53121928D01*
X76495518Y-53134188D01*
X76375820Y-53170498D01*
X76265506Y-53229463D01*
X76168815Y-53308815D01*
X76089463Y-53405506D01*
X76030498Y-53515820D01*
X75994188Y-53635518D01*
X75981928Y-53760000D01*
X72923000Y-53760000D01*
X72923000Y-51156890D01*
X76028524Y-51156890D01*
X76073175Y-51304099D01*
X76198359Y-51566920D01*
X76372412Y-51800269D01*
X76588645Y-51995178D01*
X76838748Y-52144157D01*
X77113109Y-52241481D01*
X77343000Y-52120814D01*
X77343000Y-50927000D01*
X77597000Y-50927000D01*
X77597000Y-52120814D01*
X77826891Y-52241481D01*
X78101252Y-52144157D01*
X78351355Y-51995178D01*
X78550135Y-51816000D01*
X86487000Y-51816000D01*
X86487000Y-57658000D01*
X86489440Y-57682776D01*
X86496667Y-57706601D01*
X86508403Y-57728557D01*
X86524197Y-57747803D01*
X86543443Y-57763597D01*
X86565399Y-57775333D01*
X86589224Y-57782560D01*
X86614000Y-57785000D01*
X90805000Y-57785000D01*
X90805000Y-64262000D01*
X90807440Y-64286776D01*
X90814667Y-64310601D01*
X90826403Y-64332557D01*
X90842197Y-64351803D01*
X90861443Y-64367597D01*
X90883399Y-64379333D01*
X90907224Y-64386560D01*
X90932000Y-64389000D01*
X91242541Y-64389000D01*
X91138102Y-64409774D01*
X90949744Y-64487795D01*
X90780226Y-64601063D01*
X90636063Y-64745226D01*
X90522795Y-64914744D01*
X90444774Y-65103102D01*
X90405000Y-65303061D01*
X90405000Y-65506939D01*
X90444774Y-65706898D01*
X90522795Y-65895256D01*
X90636063Y-66064774D01*
X90780226Y-66208937D01*
X90949744Y-66322205D01*
X91138102Y-66400226D01*
X91338061Y-66440000D01*
X91541939Y-66440000D01*
X91741898Y-66400226D01*
X91749951Y-66396890D01*
X103968524Y-66396890D01*
X104013175Y-66544099D01*
X104138359Y-66806920D01*
X104312412Y-67040269D01*
X104528645Y-67235178D01*
X104778748Y-67384157D01*
X105053109Y-67481481D01*
X105283000Y-67360814D01*
X105283000Y-66167000D01*
X105537000Y-66167000D01*
X105537000Y-67360814D01*
X105766891Y-67481481D01*
X106041252Y-67384157D01*
X106291355Y-67235178D01*
X106507588Y-67040269D01*
X106681641Y-66806920D01*
X106806825Y-66544099D01*
X106851476Y-66396890D01*
X106730155Y-66167000D01*
X105537000Y-66167000D01*
X105283000Y-66167000D01*
X104089845Y-66167000D01*
X103968524Y-66396890D01*
X91749951Y-66396890D01*
X91930256Y-66322205D01*
X92099774Y-66208937D01*
X92243937Y-66064774D01*
X92357205Y-65895256D01*
X92435226Y-65706898D01*
X92475000Y-65506939D01*
X92475000Y-65303061D01*
X92435226Y-65103102D01*
X92357205Y-64914744D01*
X92243937Y-64745226D01*
X92099774Y-64601063D01*
X91930256Y-64487795D01*
X91741898Y-64409774D01*
X91637459Y-64389000D01*
X93218000Y-64389000D01*
X93242776Y-64386560D01*
X93266601Y-64379333D01*
X93288557Y-64367597D01*
X93307803Y-64351803D01*
X93323597Y-64332557D01*
X93335333Y-64310601D01*
X93342560Y-64286776D01*
X93345000Y-64262000D01*
X93345000Y-62826561D01*
X94342000Y-62826561D01*
X94342000Y-63030439D01*
X94381774Y-63230398D01*
X94459795Y-63418756D01*
X94573063Y-63588274D01*
X94717226Y-63732437D01*
X94886744Y-63845705D01*
X95075102Y-63923726D01*
X95275061Y-63963500D01*
X95478939Y-63963500D01*
X95678898Y-63923726D01*
X95867256Y-63845705D01*
X96036774Y-63732437D01*
X96180937Y-63588274D01*
X96294205Y-63418756D01*
X96372226Y-63230398D01*
X96412000Y-63030439D01*
X96412000Y-62826561D01*
X96372226Y-62626602D01*
X96294205Y-62438244D01*
X96180937Y-62268726D01*
X96036774Y-62124563D01*
X95867256Y-62011295D01*
X95678898Y-61933274D01*
X95478939Y-61893500D01*
X95275061Y-61893500D01*
X95075102Y-61933274D01*
X94886744Y-62011295D01*
X94717226Y-62124563D01*
X94573063Y-62268726D01*
X94459795Y-62438244D01*
X94381774Y-62626602D01*
X94342000Y-62826561D01*
X93345000Y-62826561D01*
X93345000Y-57785000D01*
X97790000Y-57785000D01*
X97814776Y-57782560D01*
X97838601Y-57775333D01*
X97860557Y-57763597D01*
X97879803Y-57747803D01*
X97895597Y-57728557D01*
X97907333Y-57706601D01*
X97914560Y-57682776D01*
X97917000Y-57658000D01*
X97917000Y-51816000D01*
X97914560Y-51791224D01*
X97907333Y-51767399D01*
X97895597Y-51745443D01*
X97879803Y-51726197D01*
X97860557Y-51710403D01*
X97838601Y-51698667D01*
X97814776Y-51691440D01*
X97790000Y-51689000D01*
X86614000Y-51689000D01*
X86589224Y-51691440D01*
X86565399Y-51698667D01*
X86543443Y-51710403D01*
X86524197Y-51726197D01*
X86508403Y-51745443D01*
X86496667Y-51767399D01*
X86489440Y-51791224D01*
X86487000Y-51816000D01*
X78550135Y-51816000D01*
X78567588Y-51800269D01*
X78741641Y-51566920D01*
X78866825Y-51304099D01*
X78911476Y-51156890D01*
X78790155Y-50927000D01*
X77597000Y-50927000D01*
X77343000Y-50927000D01*
X76149845Y-50927000D01*
X76028524Y-51156890D01*
X72923000Y-51156890D01*
X72923000Y-47410000D01*
X75981928Y-47410000D01*
X75981928Y-49110000D01*
X75994188Y-49234482D01*
X76030498Y-49354180D01*
X76089463Y-49464494D01*
X76168815Y-49561185D01*
X76265506Y-49640537D01*
X76375820Y-49699502D01*
X76456466Y-49723966D01*
X76372412Y-49799731D01*
X76198359Y-50033080D01*
X76073175Y-50295901D01*
X76028524Y-50443110D01*
X76149845Y-50673000D01*
X77343000Y-50673000D01*
X77343000Y-50653000D01*
X77597000Y-50653000D01*
X77597000Y-50673000D01*
X78790155Y-50673000D01*
X78911476Y-50443110D01*
X78866825Y-50295901D01*
X78741641Y-50033080D01*
X78567588Y-49799731D01*
X78483534Y-49723966D01*
X78564180Y-49699502D01*
X78674494Y-49640537D01*
X78771185Y-49561185D01*
X78850537Y-49464494D01*
X78909502Y-49354180D01*
X78945812Y-49234482D01*
X78958072Y-49110000D01*
X78958072Y-47650061D01*
X87865000Y-47650061D01*
X87865000Y-47853939D01*
X87904774Y-48053898D01*
X87982795Y-48242256D01*
X87994651Y-48260000D01*
X87982795Y-48277744D01*
X87904774Y-48466102D01*
X87865000Y-48666061D01*
X87865000Y-48869939D01*
X87904774Y-49069898D01*
X87982795Y-49258256D01*
X88096063Y-49427774D01*
X88240226Y-49571937D01*
X88409744Y-49685205D01*
X88598102Y-49763226D01*
X88798061Y-49803000D01*
X89001939Y-49803000D01*
X89201898Y-49763226D01*
X89390256Y-49685205D01*
X89559774Y-49571937D01*
X89703937Y-49427774D01*
X89817205Y-49258256D01*
X89895226Y-49069898D01*
X89935000Y-48869939D01*
X89935000Y-48666061D01*
X89895226Y-48466102D01*
X89817205Y-48277744D01*
X89805349Y-48260000D01*
X89817205Y-48242256D01*
X89895226Y-48053898D01*
X89935000Y-47853939D01*
X89935000Y-47650061D01*
X89895226Y-47450102D01*
X89878616Y-47410000D01*
X103921928Y-47410000D01*
X103921928Y-49110000D01*
X103934188Y-49234482D01*
X103970498Y-49354180D01*
X104029463Y-49464494D01*
X104108815Y-49561185D01*
X104205506Y-49640537D01*
X104315820Y-49699502D01*
X104388380Y-49721513D01*
X104256525Y-49853368D01*
X104094010Y-50096589D01*
X103982068Y-50366842D01*
X103925000Y-50653740D01*
X103925000Y-50946260D01*
X103982068Y-51233158D01*
X104094010Y-51503411D01*
X104256525Y-51746632D01*
X104463368Y-51953475D01*
X104637760Y-52070000D01*
X104463368Y-52186525D01*
X104256525Y-52393368D01*
X104094010Y-52636589D01*
X103982068Y-52906842D01*
X103925000Y-53193740D01*
X103925000Y-53486260D01*
X103982068Y-53773158D01*
X104094010Y-54043411D01*
X104256525Y-54286632D01*
X104463368Y-54493475D01*
X104637760Y-54610000D01*
X104463368Y-54726525D01*
X104256525Y-54933368D01*
X104094010Y-55176589D01*
X103982068Y-55446842D01*
X103925000Y-55733740D01*
X103925000Y-56026260D01*
X103982068Y-56313158D01*
X104094010Y-56583411D01*
X104256525Y-56826632D01*
X104463368Y-57033475D01*
X104637760Y-57150000D01*
X104463368Y-57266525D01*
X104256525Y-57473368D01*
X104094010Y-57716589D01*
X103982068Y-57986842D01*
X103925000Y-58273740D01*
X103925000Y-58566260D01*
X103982068Y-58853158D01*
X104094010Y-59123411D01*
X104256525Y-59366632D01*
X104463368Y-59573475D01*
X104637760Y-59690000D01*
X104463368Y-59806525D01*
X104256525Y-60013368D01*
X104094010Y-60256589D01*
X103982068Y-60526842D01*
X103925000Y-60813740D01*
X103925000Y-61106260D01*
X103982068Y-61393158D01*
X104094010Y-61663411D01*
X104256525Y-61906632D01*
X104463368Y-62113475D01*
X104637760Y-62230000D01*
X104463368Y-62346525D01*
X104256525Y-62553368D01*
X104094010Y-62796589D01*
X103982068Y-63066842D01*
X103925000Y-63353740D01*
X103925000Y-63646260D01*
X103982068Y-63933158D01*
X104094010Y-64203411D01*
X104256525Y-64446632D01*
X104463368Y-64653475D01*
X104645534Y-64775195D01*
X104528645Y-64844822D01*
X104312412Y-65039731D01*
X104138359Y-65273080D01*
X104013175Y-65535901D01*
X103968524Y-65683110D01*
X104089845Y-65913000D01*
X105283000Y-65913000D01*
X105283000Y-65893000D01*
X105537000Y-65893000D01*
X105537000Y-65913000D01*
X106730155Y-65913000D01*
X106851476Y-65683110D01*
X106806825Y-65535901D01*
X106681641Y-65273080D01*
X106507588Y-65039731D01*
X106291355Y-64844822D01*
X106174466Y-64775195D01*
X106356632Y-64653475D01*
X106563475Y-64446632D01*
X106725990Y-64203411D01*
X106837932Y-63933158D01*
X106895000Y-63646260D01*
X106895000Y-63353740D01*
X106837932Y-63066842D01*
X106725990Y-62796589D01*
X106563475Y-62553368D01*
X106356632Y-62346525D01*
X106182240Y-62230000D01*
X106356632Y-62113475D01*
X106563475Y-61906632D01*
X106725990Y-61663411D01*
X106837932Y-61393158D01*
X106895000Y-61106260D01*
X106895000Y-60813740D01*
X106837932Y-60526842D01*
X106725990Y-60256589D01*
X106563475Y-60013368D01*
X106356632Y-59806525D01*
X106182240Y-59690000D01*
X106356632Y-59573475D01*
X106563475Y-59366632D01*
X106725990Y-59123411D01*
X106837932Y-58853158D01*
X106895000Y-58566260D01*
X106895000Y-58273740D01*
X106837932Y-57986842D01*
X106725990Y-57716589D01*
X106563475Y-57473368D01*
X106356632Y-57266525D01*
X106182240Y-57150000D01*
X106356632Y-57033475D01*
X106563475Y-56826632D01*
X106725990Y-56583411D01*
X106837932Y-56313158D01*
X106895000Y-56026260D01*
X106895000Y-55733740D01*
X106837932Y-55446842D01*
X106725990Y-55176589D01*
X106563475Y-54933368D01*
X106356632Y-54726525D01*
X106182240Y-54610000D01*
X106356632Y-54493475D01*
X106563475Y-54286632D01*
X106725990Y-54043411D01*
X106837932Y-53773158D01*
X106895000Y-53486260D01*
X106895000Y-53193740D01*
X106837932Y-52906842D01*
X106725990Y-52636589D01*
X106563475Y-52393368D01*
X106356632Y-52186525D01*
X106182240Y-52070000D01*
X106356632Y-51953475D01*
X106563475Y-51746632D01*
X106725990Y-51503411D01*
X106837932Y-51233158D01*
X106895000Y-50946260D01*
X106895000Y-50653740D01*
X106837932Y-50366842D01*
X106725990Y-50096589D01*
X106563475Y-49853368D01*
X106431620Y-49721513D01*
X106504180Y-49699502D01*
X106614494Y-49640537D01*
X106711185Y-49561185D01*
X106790537Y-49464494D01*
X106849502Y-49354180D01*
X106885812Y-49234482D01*
X106898072Y-49110000D01*
X106898072Y-47410000D01*
X106885812Y-47285518D01*
X106849502Y-47165820D01*
X106790537Y-47055506D01*
X106711185Y-46958815D01*
X106614494Y-46879463D01*
X106504180Y-46820498D01*
X106384482Y-46784188D01*
X106260000Y-46771928D01*
X104560000Y-46771928D01*
X104435518Y-46784188D01*
X104315820Y-46820498D01*
X104205506Y-46879463D01*
X104108815Y-46958815D01*
X104029463Y-47055506D01*
X103970498Y-47165820D01*
X103934188Y-47285518D01*
X103921928Y-47410000D01*
X89878616Y-47410000D01*
X89817205Y-47261744D01*
X89703937Y-47092226D01*
X89559774Y-46948063D01*
X89390256Y-46834795D01*
X89201898Y-46756774D01*
X89001939Y-46717000D01*
X88798061Y-46717000D01*
X88598102Y-46756774D01*
X88409744Y-46834795D01*
X88240226Y-46948063D01*
X88096063Y-47092226D01*
X87982795Y-47261744D01*
X87904774Y-47450102D01*
X87865000Y-47650061D01*
X78958072Y-47650061D01*
X78958072Y-47410000D01*
X78945812Y-47285518D01*
X78909502Y-47165820D01*
X78850537Y-47055506D01*
X78771185Y-46958815D01*
X78674494Y-46879463D01*
X78564180Y-46820498D01*
X78444482Y-46784188D01*
X78320000Y-46771928D01*
X76620000Y-46771928D01*
X76495518Y-46784188D01*
X76375820Y-46820498D01*
X76265506Y-46879463D01*
X76168815Y-46958815D01*
X76089463Y-47055506D01*
X76030498Y-47165820D01*
X75994188Y-47285518D01*
X75981928Y-47410000D01*
X72923000Y-47410000D01*
X72923000Y-46133279D01*
X72944978Y-45909128D01*
X73000701Y-45724565D01*
X73091212Y-45554340D01*
X73213060Y-45404939D01*
X73361611Y-45282047D01*
X73531202Y-45190350D01*
X73715372Y-45133340D01*
X73937439Y-45110000D01*
X108806721Y-45110000D01*
X109030872Y-45131978D01*
G37*
G04 #@! TD.AperFunction*
M02*
