G04 #@! TF.GenerationSoftware,KiCad,Pcbnew,(5.1.10-1-10_14)*
G04 #@! TF.CreationDate,2021-12-12T21:17:35+11:00*
G04 #@! TF.ProjectId,STM32L1_Breakout,53544d33-324c-4315-9f42-7265616b6f75,rev?*
G04 #@! TF.SameCoordinates,Original*
G04 #@! TF.FileFunction,Paste,Top*
G04 #@! TF.FilePolarity,Positive*
%FSLAX46Y46*%
G04 Gerber Fmt 4.6, Leading zero omitted, Abs format (unit mm)*
G04 Created by KiCad (PCBNEW (5.1.10-1-10_14)) date 2021-12-12 21:17:35*
%MOMM*%
%LPD*%
G01*
G04 APERTURE LIST*
%ADD10R,0.900000X1.200000*%
%ADD11R,2.100000X1.800000*%
G04 APERTURE END LIST*
G36*
G01*
X86781008Y-72602132D02*
X86445132Y-72938008D01*
G75*
G02*
X86109256Y-72938008I-167938J167938D01*
G01*
X85684992Y-72513744D01*
G75*
G02*
X85684992Y-72177868I167938J167938D01*
G01*
X86020868Y-71841992D01*
G75*
G02*
X86356744Y-71841992I167938J-167938D01*
G01*
X86781008Y-72266256D01*
G75*
G02*
X86781008Y-72602132I-167938J-167938D01*
G01*
G37*
G36*
G01*
X85561248Y-71382372D02*
X85225372Y-71718248D01*
G75*
G02*
X84889496Y-71718248I-167938J167938D01*
G01*
X84465232Y-71293984D01*
G75*
G02*
X84465232Y-70958108I167938J167938D01*
G01*
X84801108Y-70622232D01*
G75*
G02*
X85136984Y-70622232I167938J-167938D01*
G01*
X85561248Y-71046496D01*
G75*
G02*
X85561248Y-71382372I-167938J-167938D01*
G01*
G37*
G36*
G01*
X97064752Y-62983628D02*
X97400628Y-62647752D01*
G75*
G02*
X97736504Y-62647752I167938J-167938D01*
G01*
X98160768Y-63072016D01*
G75*
G02*
X98160768Y-63407892I-167938J-167938D01*
G01*
X97824892Y-63743768D01*
G75*
G02*
X97489016Y-63743768I-167938J167938D01*
G01*
X97064752Y-63319504D01*
G75*
G02*
X97064752Y-62983628I167938J167938D01*
G01*
G37*
G36*
G01*
X95844992Y-61763868D02*
X96180868Y-61427992D01*
G75*
G02*
X96516744Y-61427992I167938J-167938D01*
G01*
X96941008Y-61852256D01*
G75*
G02*
X96941008Y-62188132I-167938J-167938D01*
G01*
X96605132Y-62524008D01*
G75*
G02*
X96269256Y-62524008I-167938J167938D01*
G01*
X95844992Y-62099744D01*
G75*
G02*
X95844992Y-61763868I167938J167938D01*
G01*
G37*
G36*
G01*
X96917680Y-71513891D02*
X97253556Y-71849767D01*
G75*
G02*
X97253556Y-72185643I-167938J-167938D01*
G01*
X96829292Y-72609907D01*
G75*
G02*
X96493416Y-72609907I-167938J167938D01*
G01*
X96157540Y-72274031D01*
G75*
G02*
X96157540Y-71938155I167938J167938D01*
G01*
X96581804Y-71513891D01*
G75*
G02*
X96917680Y-71513891I167938J-167938D01*
G01*
G37*
G36*
G01*
X95697920Y-72733651D02*
X96033796Y-73069527D01*
G75*
G02*
X96033796Y-73405403I-167938J-167938D01*
G01*
X95609532Y-73829667D01*
G75*
G02*
X95273656Y-73829667I-167938J167938D01*
G01*
X94937780Y-73493791D01*
G75*
G02*
X94937780Y-73157915I167938J167938D01*
G01*
X95362044Y-72733651D01*
G75*
G02*
X95697920Y-72733651I167938J-167938D01*
G01*
G37*
G36*
G01*
X98491346Y-72478032D02*
X99163097Y-73149783D01*
G75*
G02*
X99163097Y-73503337I-176777J-176777D01*
G01*
X98685800Y-73980634D01*
G75*
G02*
X98332246Y-73980634I-176777J176777D01*
G01*
X97660495Y-73308883D01*
G75*
G02*
X97660495Y-72955329I176777J176777D01*
G01*
X98137792Y-72478032D01*
G75*
G02*
X98491346Y-72478032I176777J-176777D01*
G01*
G37*
G36*
G01*
X97024100Y-73945278D02*
X97695851Y-74617029D01*
G75*
G02*
X97695851Y-74970583I-176777J-176777D01*
G01*
X97218554Y-75447880D01*
G75*
G02*
X96865000Y-75447880I-176777J176777D01*
G01*
X96193249Y-74776129D01*
G75*
G02*
X96193249Y-74422575I176777J176777D01*
G01*
X96670546Y-73945278D01*
G75*
G02*
X97024100Y-73945278I176777J-176777D01*
G01*
G37*
G36*
G01*
X83521500Y-59071500D02*
X83521500Y-59546500D01*
G75*
G02*
X83284000Y-59784000I-237500J0D01*
G01*
X82684000Y-59784000D01*
G75*
G02*
X82446500Y-59546500I0J237500D01*
G01*
X82446500Y-59071500D01*
G75*
G02*
X82684000Y-58834000I237500J0D01*
G01*
X83284000Y-58834000D01*
G75*
G02*
X83521500Y-59071500I0J-237500D01*
G01*
G37*
G36*
G01*
X85246500Y-59071500D02*
X85246500Y-59546500D01*
G75*
G02*
X85009000Y-59784000I-237500J0D01*
G01*
X84409000Y-59784000D01*
G75*
G02*
X84171500Y-59546500I0J237500D01*
G01*
X84171500Y-59071500D01*
G75*
G02*
X84409000Y-58834000I237500J0D01*
G01*
X85009000Y-58834000D01*
G75*
G02*
X85246500Y-59071500I0J-237500D01*
G01*
G37*
G36*
G01*
X83221500Y-56802000D02*
X83221500Y-57752000D01*
G75*
G02*
X82971500Y-58002000I-250000J0D01*
G01*
X82296500Y-58002000D01*
G75*
G02*
X82046500Y-57752000I0J250000D01*
G01*
X82046500Y-56802000D01*
G75*
G02*
X82296500Y-56552000I250000J0D01*
G01*
X82971500Y-56552000D01*
G75*
G02*
X83221500Y-56802000I0J-250000D01*
G01*
G37*
G36*
G01*
X85296500Y-56802000D02*
X85296500Y-57752000D01*
G75*
G02*
X85046500Y-58002000I-250000J0D01*
G01*
X84371500Y-58002000D01*
G75*
G02*
X84121500Y-57752000I0J250000D01*
G01*
X84121500Y-56802000D01*
G75*
G02*
X84371500Y-56552000I250000J0D01*
G01*
X85046500Y-56552000D01*
G75*
G02*
X85296500Y-56802000I0J-250000D01*
G01*
G37*
G36*
G01*
X96282500Y-52982500D02*
X96757500Y-52982500D01*
G75*
G02*
X96995000Y-53220000I0J-237500D01*
G01*
X96995000Y-53820000D01*
G75*
G02*
X96757500Y-54057500I-237500J0D01*
G01*
X96282500Y-54057500D01*
G75*
G02*
X96045000Y-53820000I0J237500D01*
G01*
X96045000Y-53220000D01*
G75*
G02*
X96282500Y-52982500I237500J0D01*
G01*
G37*
G36*
G01*
X96282500Y-54707500D02*
X96757500Y-54707500D01*
G75*
G02*
X96995000Y-54945000I0J-237500D01*
G01*
X96995000Y-55545000D01*
G75*
G02*
X96757500Y-55782500I-237500J0D01*
G01*
X96282500Y-55782500D01*
G75*
G02*
X96045000Y-55545000I0J237500D01*
G01*
X96045000Y-54945000D01*
G75*
G02*
X96282500Y-54707500I237500J0D01*
G01*
G37*
G36*
G01*
X88248500Y-54666000D02*
X87773500Y-54666000D01*
G75*
G02*
X87536000Y-54428500I0J237500D01*
G01*
X87536000Y-53828500D01*
G75*
G02*
X87773500Y-53591000I237500J0D01*
G01*
X88248500Y-53591000D01*
G75*
G02*
X88486000Y-53828500I0J-237500D01*
G01*
X88486000Y-54428500D01*
G75*
G02*
X88248500Y-54666000I-237500J0D01*
G01*
G37*
G36*
G01*
X88248500Y-56391000D02*
X87773500Y-56391000D01*
G75*
G02*
X87536000Y-56153500I0J237500D01*
G01*
X87536000Y-55553500D01*
G75*
G02*
X87773500Y-55316000I237500J0D01*
G01*
X88248500Y-55316000D01*
G75*
G02*
X88486000Y-55553500I0J-237500D01*
G01*
X88486000Y-56153500D01*
G75*
G02*
X88248500Y-56391000I-237500J0D01*
G01*
G37*
G36*
G01*
X95508500Y-60038000D02*
X95508500Y-59088000D01*
G75*
G02*
X95758500Y-58838000I250000J0D01*
G01*
X96433500Y-58838000D01*
G75*
G02*
X96683500Y-59088000I0J-250000D01*
G01*
X96683500Y-60038000D01*
G75*
G02*
X96433500Y-60288000I-250000J0D01*
G01*
X95758500Y-60288000D01*
G75*
G02*
X95508500Y-60038000I0J250000D01*
G01*
G37*
G36*
G01*
X97583500Y-60038000D02*
X97583500Y-59088000D01*
G75*
G02*
X97833500Y-58838000I250000J0D01*
G01*
X98508500Y-58838000D01*
G75*
G02*
X98758500Y-59088000I0J-250000D01*
G01*
X98758500Y-60038000D01*
G75*
G02*
X98508500Y-60288000I-250000J0D01*
G01*
X97833500Y-60288000D01*
G75*
G02*
X97583500Y-60038000I0J250000D01*
G01*
G37*
G36*
G01*
X102365000Y-81296500D02*
X102365000Y-81771500D01*
G75*
G02*
X102127500Y-82009000I-237500J0D01*
G01*
X101527500Y-82009000D01*
G75*
G02*
X101290000Y-81771500I0J237500D01*
G01*
X101290000Y-81296500D01*
G75*
G02*
X101527500Y-81059000I237500J0D01*
G01*
X102127500Y-81059000D01*
G75*
G02*
X102365000Y-81296500I0J-237500D01*
G01*
G37*
G36*
G01*
X100640000Y-81296500D02*
X100640000Y-81771500D01*
G75*
G02*
X100402500Y-82009000I-237500J0D01*
G01*
X99802500Y-82009000D01*
G75*
G02*
X99565000Y-81771500I0J237500D01*
G01*
X99565000Y-81296500D01*
G75*
G02*
X99802500Y-81059000I237500J0D01*
G01*
X100402500Y-81059000D01*
G75*
G02*
X100640000Y-81296500I0J-237500D01*
G01*
G37*
D10*
X83820000Y-48260000D03*
X80520000Y-48260000D03*
G36*
G01*
X88155000Y-48022500D02*
X88155000Y-48497500D01*
G75*
G02*
X87917500Y-48735000I-237500J0D01*
G01*
X87342500Y-48735000D01*
G75*
G02*
X87105000Y-48497500I0J237500D01*
G01*
X87105000Y-48022500D01*
G75*
G02*
X87342500Y-47785000I237500J0D01*
G01*
X87917500Y-47785000D01*
G75*
G02*
X88155000Y-48022500I0J-237500D01*
G01*
G37*
G36*
G01*
X86405000Y-48022500D02*
X86405000Y-48497500D01*
G75*
G02*
X86167500Y-48735000I-237500J0D01*
G01*
X85592500Y-48735000D01*
G75*
G02*
X85355000Y-48497500I0J237500D01*
G01*
X85355000Y-48022500D01*
G75*
G02*
X85592500Y-47785000I237500J0D01*
G01*
X86167500Y-47785000D01*
G75*
G02*
X86405000Y-48022500I0J-237500D01*
G01*
G37*
G36*
G01*
X85302000Y-54540999D02*
X85302000Y-55441001D01*
G75*
G02*
X85052001Y-55691000I-249999J0D01*
G01*
X84401999Y-55691000D01*
G75*
G02*
X84152000Y-55441001I0J249999D01*
G01*
X84152000Y-54540999D01*
G75*
G02*
X84401999Y-54291000I249999J0D01*
G01*
X85052001Y-54291000D01*
G75*
G02*
X85302000Y-54540999I0J-249999D01*
G01*
G37*
G36*
G01*
X83252000Y-54540999D02*
X83252000Y-55441001D01*
G75*
G02*
X83002001Y-55691000I-249999J0D01*
G01*
X82351999Y-55691000D01*
G75*
G02*
X82102000Y-55441001I0J249999D01*
G01*
X82102000Y-54540999D01*
G75*
G02*
X82351999Y-54291000I249999J0D01*
G01*
X83002001Y-54291000D01*
G75*
G02*
X83252000Y-54540999I0J-249999D01*
G01*
G37*
G36*
G01*
X102472500Y-52938500D02*
X101997500Y-52938500D01*
G75*
G02*
X101760000Y-52701000I0J237500D01*
G01*
X101760000Y-52201000D01*
G75*
G02*
X101997500Y-51963500I237500J0D01*
G01*
X102472500Y-51963500D01*
G75*
G02*
X102710000Y-52201000I0J-237500D01*
G01*
X102710000Y-52701000D01*
G75*
G02*
X102472500Y-52938500I-237500J0D01*
G01*
G37*
G36*
G01*
X102472500Y-54763500D02*
X101997500Y-54763500D01*
G75*
G02*
X101760000Y-54526000I0J237500D01*
G01*
X101760000Y-54026000D01*
G75*
G02*
X101997500Y-53788500I237500J0D01*
G01*
X102472500Y-53788500D01*
G75*
G02*
X102710000Y-54026000I0J-237500D01*
G01*
X102710000Y-54526000D01*
G75*
G02*
X102472500Y-54763500I-237500J0D01*
G01*
G37*
G36*
G01*
X91931500Y-60732500D02*
X91456500Y-60732500D01*
G75*
G02*
X91219000Y-60495000I0J237500D01*
G01*
X91219000Y-59995000D01*
G75*
G02*
X91456500Y-59757500I237500J0D01*
G01*
X91931500Y-59757500D01*
G75*
G02*
X92169000Y-59995000I0J-237500D01*
G01*
X92169000Y-60495000D01*
G75*
G02*
X91931500Y-60732500I-237500J0D01*
G01*
G37*
G36*
G01*
X91931500Y-58907500D02*
X91456500Y-58907500D01*
G75*
G02*
X91219000Y-58670000I0J237500D01*
G01*
X91219000Y-58170000D01*
G75*
G02*
X91456500Y-57932500I237500J0D01*
G01*
X91931500Y-57932500D01*
G75*
G02*
X92169000Y-58170000I0J-237500D01*
G01*
X92169000Y-58670000D01*
G75*
G02*
X91931500Y-58907500I-237500J0D01*
G01*
G37*
G36*
G01*
X94115000Y-62410000D02*
X94265000Y-62410000D01*
G75*
G02*
X94340000Y-62485000I0J-75000D01*
G01*
X94340000Y-63810000D01*
G75*
G02*
X94265000Y-63885000I-75000J0D01*
G01*
X94115000Y-63885000D01*
G75*
G02*
X94040000Y-63810000I0J75000D01*
G01*
X94040000Y-62485000D01*
G75*
G02*
X94115000Y-62410000I75000J0D01*
G01*
G37*
G36*
G01*
X93615000Y-62410000D02*
X93765000Y-62410000D01*
G75*
G02*
X93840000Y-62485000I0J-75000D01*
G01*
X93840000Y-63810000D01*
G75*
G02*
X93765000Y-63885000I-75000J0D01*
G01*
X93615000Y-63885000D01*
G75*
G02*
X93540000Y-63810000I0J75000D01*
G01*
X93540000Y-62485000D01*
G75*
G02*
X93615000Y-62410000I75000J0D01*
G01*
G37*
G36*
G01*
X93115000Y-62410000D02*
X93265000Y-62410000D01*
G75*
G02*
X93340000Y-62485000I0J-75000D01*
G01*
X93340000Y-63810000D01*
G75*
G02*
X93265000Y-63885000I-75000J0D01*
G01*
X93115000Y-63885000D01*
G75*
G02*
X93040000Y-63810000I0J75000D01*
G01*
X93040000Y-62485000D01*
G75*
G02*
X93115000Y-62410000I75000J0D01*
G01*
G37*
G36*
G01*
X92615000Y-62410000D02*
X92765000Y-62410000D01*
G75*
G02*
X92840000Y-62485000I0J-75000D01*
G01*
X92840000Y-63810000D01*
G75*
G02*
X92765000Y-63885000I-75000J0D01*
G01*
X92615000Y-63885000D01*
G75*
G02*
X92540000Y-63810000I0J75000D01*
G01*
X92540000Y-62485000D01*
G75*
G02*
X92615000Y-62410000I75000J0D01*
G01*
G37*
G36*
G01*
X92115000Y-62410000D02*
X92265000Y-62410000D01*
G75*
G02*
X92340000Y-62485000I0J-75000D01*
G01*
X92340000Y-63810000D01*
G75*
G02*
X92265000Y-63885000I-75000J0D01*
G01*
X92115000Y-63885000D01*
G75*
G02*
X92040000Y-63810000I0J75000D01*
G01*
X92040000Y-62485000D01*
G75*
G02*
X92115000Y-62410000I75000J0D01*
G01*
G37*
G36*
G01*
X91615000Y-62410000D02*
X91765000Y-62410000D01*
G75*
G02*
X91840000Y-62485000I0J-75000D01*
G01*
X91840000Y-63810000D01*
G75*
G02*
X91765000Y-63885000I-75000J0D01*
G01*
X91615000Y-63885000D01*
G75*
G02*
X91540000Y-63810000I0J75000D01*
G01*
X91540000Y-62485000D01*
G75*
G02*
X91615000Y-62410000I75000J0D01*
G01*
G37*
G36*
G01*
X91115000Y-62410000D02*
X91265000Y-62410000D01*
G75*
G02*
X91340000Y-62485000I0J-75000D01*
G01*
X91340000Y-63810000D01*
G75*
G02*
X91265000Y-63885000I-75000J0D01*
G01*
X91115000Y-63885000D01*
G75*
G02*
X91040000Y-63810000I0J75000D01*
G01*
X91040000Y-62485000D01*
G75*
G02*
X91115000Y-62410000I75000J0D01*
G01*
G37*
G36*
G01*
X90615000Y-62410000D02*
X90765000Y-62410000D01*
G75*
G02*
X90840000Y-62485000I0J-75000D01*
G01*
X90840000Y-63810000D01*
G75*
G02*
X90765000Y-63885000I-75000J0D01*
G01*
X90615000Y-63885000D01*
G75*
G02*
X90540000Y-63810000I0J75000D01*
G01*
X90540000Y-62485000D01*
G75*
G02*
X90615000Y-62410000I75000J0D01*
G01*
G37*
G36*
G01*
X90115000Y-62410000D02*
X90265000Y-62410000D01*
G75*
G02*
X90340000Y-62485000I0J-75000D01*
G01*
X90340000Y-63810000D01*
G75*
G02*
X90265000Y-63885000I-75000J0D01*
G01*
X90115000Y-63885000D01*
G75*
G02*
X90040000Y-63810000I0J75000D01*
G01*
X90040000Y-62485000D01*
G75*
G02*
X90115000Y-62410000I75000J0D01*
G01*
G37*
G36*
G01*
X89615000Y-62410000D02*
X89765000Y-62410000D01*
G75*
G02*
X89840000Y-62485000I0J-75000D01*
G01*
X89840000Y-63810000D01*
G75*
G02*
X89765000Y-63885000I-75000J0D01*
G01*
X89615000Y-63885000D01*
G75*
G02*
X89540000Y-63810000I0J75000D01*
G01*
X89540000Y-62485000D01*
G75*
G02*
X89615000Y-62410000I75000J0D01*
G01*
G37*
G36*
G01*
X89115000Y-62410000D02*
X89265000Y-62410000D01*
G75*
G02*
X89340000Y-62485000I0J-75000D01*
G01*
X89340000Y-63810000D01*
G75*
G02*
X89265000Y-63885000I-75000J0D01*
G01*
X89115000Y-63885000D01*
G75*
G02*
X89040000Y-63810000I0J75000D01*
G01*
X89040000Y-62485000D01*
G75*
G02*
X89115000Y-62410000I75000J0D01*
G01*
G37*
G36*
G01*
X88615000Y-62410000D02*
X88765000Y-62410000D01*
G75*
G02*
X88840000Y-62485000I0J-75000D01*
G01*
X88840000Y-63810000D01*
G75*
G02*
X88765000Y-63885000I-75000J0D01*
G01*
X88615000Y-63885000D01*
G75*
G02*
X88540000Y-63810000I0J75000D01*
G01*
X88540000Y-62485000D01*
G75*
G02*
X88615000Y-62410000I75000J0D01*
G01*
G37*
G36*
G01*
X86615000Y-64410000D02*
X87940000Y-64410000D01*
G75*
G02*
X88015000Y-64485000I0J-75000D01*
G01*
X88015000Y-64635000D01*
G75*
G02*
X87940000Y-64710000I-75000J0D01*
G01*
X86615000Y-64710000D01*
G75*
G02*
X86540000Y-64635000I0J75000D01*
G01*
X86540000Y-64485000D01*
G75*
G02*
X86615000Y-64410000I75000J0D01*
G01*
G37*
G36*
G01*
X86615000Y-64910000D02*
X87940000Y-64910000D01*
G75*
G02*
X88015000Y-64985000I0J-75000D01*
G01*
X88015000Y-65135000D01*
G75*
G02*
X87940000Y-65210000I-75000J0D01*
G01*
X86615000Y-65210000D01*
G75*
G02*
X86540000Y-65135000I0J75000D01*
G01*
X86540000Y-64985000D01*
G75*
G02*
X86615000Y-64910000I75000J0D01*
G01*
G37*
G36*
G01*
X86615000Y-65410000D02*
X87940000Y-65410000D01*
G75*
G02*
X88015000Y-65485000I0J-75000D01*
G01*
X88015000Y-65635000D01*
G75*
G02*
X87940000Y-65710000I-75000J0D01*
G01*
X86615000Y-65710000D01*
G75*
G02*
X86540000Y-65635000I0J75000D01*
G01*
X86540000Y-65485000D01*
G75*
G02*
X86615000Y-65410000I75000J0D01*
G01*
G37*
G36*
G01*
X86615000Y-65910000D02*
X87940000Y-65910000D01*
G75*
G02*
X88015000Y-65985000I0J-75000D01*
G01*
X88015000Y-66135000D01*
G75*
G02*
X87940000Y-66210000I-75000J0D01*
G01*
X86615000Y-66210000D01*
G75*
G02*
X86540000Y-66135000I0J75000D01*
G01*
X86540000Y-65985000D01*
G75*
G02*
X86615000Y-65910000I75000J0D01*
G01*
G37*
G36*
G01*
X86615000Y-66410000D02*
X87940000Y-66410000D01*
G75*
G02*
X88015000Y-66485000I0J-75000D01*
G01*
X88015000Y-66635000D01*
G75*
G02*
X87940000Y-66710000I-75000J0D01*
G01*
X86615000Y-66710000D01*
G75*
G02*
X86540000Y-66635000I0J75000D01*
G01*
X86540000Y-66485000D01*
G75*
G02*
X86615000Y-66410000I75000J0D01*
G01*
G37*
G36*
G01*
X86615000Y-66910000D02*
X87940000Y-66910000D01*
G75*
G02*
X88015000Y-66985000I0J-75000D01*
G01*
X88015000Y-67135000D01*
G75*
G02*
X87940000Y-67210000I-75000J0D01*
G01*
X86615000Y-67210000D01*
G75*
G02*
X86540000Y-67135000I0J75000D01*
G01*
X86540000Y-66985000D01*
G75*
G02*
X86615000Y-66910000I75000J0D01*
G01*
G37*
G36*
G01*
X86615000Y-67410000D02*
X87940000Y-67410000D01*
G75*
G02*
X88015000Y-67485000I0J-75000D01*
G01*
X88015000Y-67635000D01*
G75*
G02*
X87940000Y-67710000I-75000J0D01*
G01*
X86615000Y-67710000D01*
G75*
G02*
X86540000Y-67635000I0J75000D01*
G01*
X86540000Y-67485000D01*
G75*
G02*
X86615000Y-67410000I75000J0D01*
G01*
G37*
G36*
G01*
X86615000Y-67910000D02*
X87940000Y-67910000D01*
G75*
G02*
X88015000Y-67985000I0J-75000D01*
G01*
X88015000Y-68135000D01*
G75*
G02*
X87940000Y-68210000I-75000J0D01*
G01*
X86615000Y-68210000D01*
G75*
G02*
X86540000Y-68135000I0J75000D01*
G01*
X86540000Y-67985000D01*
G75*
G02*
X86615000Y-67910000I75000J0D01*
G01*
G37*
G36*
G01*
X86615000Y-68410000D02*
X87940000Y-68410000D01*
G75*
G02*
X88015000Y-68485000I0J-75000D01*
G01*
X88015000Y-68635000D01*
G75*
G02*
X87940000Y-68710000I-75000J0D01*
G01*
X86615000Y-68710000D01*
G75*
G02*
X86540000Y-68635000I0J75000D01*
G01*
X86540000Y-68485000D01*
G75*
G02*
X86615000Y-68410000I75000J0D01*
G01*
G37*
G36*
G01*
X86615000Y-68910000D02*
X87940000Y-68910000D01*
G75*
G02*
X88015000Y-68985000I0J-75000D01*
G01*
X88015000Y-69135000D01*
G75*
G02*
X87940000Y-69210000I-75000J0D01*
G01*
X86615000Y-69210000D01*
G75*
G02*
X86540000Y-69135000I0J75000D01*
G01*
X86540000Y-68985000D01*
G75*
G02*
X86615000Y-68910000I75000J0D01*
G01*
G37*
G36*
G01*
X86615000Y-69410000D02*
X87940000Y-69410000D01*
G75*
G02*
X88015000Y-69485000I0J-75000D01*
G01*
X88015000Y-69635000D01*
G75*
G02*
X87940000Y-69710000I-75000J0D01*
G01*
X86615000Y-69710000D01*
G75*
G02*
X86540000Y-69635000I0J75000D01*
G01*
X86540000Y-69485000D01*
G75*
G02*
X86615000Y-69410000I75000J0D01*
G01*
G37*
G36*
G01*
X86615000Y-69910000D02*
X87940000Y-69910000D01*
G75*
G02*
X88015000Y-69985000I0J-75000D01*
G01*
X88015000Y-70135000D01*
G75*
G02*
X87940000Y-70210000I-75000J0D01*
G01*
X86615000Y-70210000D01*
G75*
G02*
X86540000Y-70135000I0J75000D01*
G01*
X86540000Y-69985000D01*
G75*
G02*
X86615000Y-69910000I75000J0D01*
G01*
G37*
G36*
G01*
X88615000Y-70735000D02*
X88765000Y-70735000D01*
G75*
G02*
X88840000Y-70810000I0J-75000D01*
G01*
X88840000Y-72135000D01*
G75*
G02*
X88765000Y-72210000I-75000J0D01*
G01*
X88615000Y-72210000D01*
G75*
G02*
X88540000Y-72135000I0J75000D01*
G01*
X88540000Y-70810000D01*
G75*
G02*
X88615000Y-70735000I75000J0D01*
G01*
G37*
G36*
G01*
X89115000Y-70735000D02*
X89265000Y-70735000D01*
G75*
G02*
X89340000Y-70810000I0J-75000D01*
G01*
X89340000Y-72135000D01*
G75*
G02*
X89265000Y-72210000I-75000J0D01*
G01*
X89115000Y-72210000D01*
G75*
G02*
X89040000Y-72135000I0J75000D01*
G01*
X89040000Y-70810000D01*
G75*
G02*
X89115000Y-70735000I75000J0D01*
G01*
G37*
G36*
G01*
X89615000Y-70735000D02*
X89765000Y-70735000D01*
G75*
G02*
X89840000Y-70810000I0J-75000D01*
G01*
X89840000Y-72135000D01*
G75*
G02*
X89765000Y-72210000I-75000J0D01*
G01*
X89615000Y-72210000D01*
G75*
G02*
X89540000Y-72135000I0J75000D01*
G01*
X89540000Y-70810000D01*
G75*
G02*
X89615000Y-70735000I75000J0D01*
G01*
G37*
G36*
G01*
X90115000Y-70735000D02*
X90265000Y-70735000D01*
G75*
G02*
X90340000Y-70810000I0J-75000D01*
G01*
X90340000Y-72135000D01*
G75*
G02*
X90265000Y-72210000I-75000J0D01*
G01*
X90115000Y-72210000D01*
G75*
G02*
X90040000Y-72135000I0J75000D01*
G01*
X90040000Y-70810000D01*
G75*
G02*
X90115000Y-70735000I75000J0D01*
G01*
G37*
G36*
G01*
X90615000Y-70735000D02*
X90765000Y-70735000D01*
G75*
G02*
X90840000Y-70810000I0J-75000D01*
G01*
X90840000Y-72135000D01*
G75*
G02*
X90765000Y-72210000I-75000J0D01*
G01*
X90615000Y-72210000D01*
G75*
G02*
X90540000Y-72135000I0J75000D01*
G01*
X90540000Y-70810000D01*
G75*
G02*
X90615000Y-70735000I75000J0D01*
G01*
G37*
G36*
G01*
X91115000Y-70735000D02*
X91265000Y-70735000D01*
G75*
G02*
X91340000Y-70810000I0J-75000D01*
G01*
X91340000Y-72135000D01*
G75*
G02*
X91265000Y-72210000I-75000J0D01*
G01*
X91115000Y-72210000D01*
G75*
G02*
X91040000Y-72135000I0J75000D01*
G01*
X91040000Y-70810000D01*
G75*
G02*
X91115000Y-70735000I75000J0D01*
G01*
G37*
G36*
G01*
X91615000Y-70735000D02*
X91765000Y-70735000D01*
G75*
G02*
X91840000Y-70810000I0J-75000D01*
G01*
X91840000Y-72135000D01*
G75*
G02*
X91765000Y-72210000I-75000J0D01*
G01*
X91615000Y-72210000D01*
G75*
G02*
X91540000Y-72135000I0J75000D01*
G01*
X91540000Y-70810000D01*
G75*
G02*
X91615000Y-70735000I75000J0D01*
G01*
G37*
G36*
G01*
X92115000Y-70735000D02*
X92265000Y-70735000D01*
G75*
G02*
X92340000Y-70810000I0J-75000D01*
G01*
X92340000Y-72135000D01*
G75*
G02*
X92265000Y-72210000I-75000J0D01*
G01*
X92115000Y-72210000D01*
G75*
G02*
X92040000Y-72135000I0J75000D01*
G01*
X92040000Y-70810000D01*
G75*
G02*
X92115000Y-70735000I75000J0D01*
G01*
G37*
G36*
G01*
X92615000Y-70735000D02*
X92765000Y-70735000D01*
G75*
G02*
X92840000Y-70810000I0J-75000D01*
G01*
X92840000Y-72135000D01*
G75*
G02*
X92765000Y-72210000I-75000J0D01*
G01*
X92615000Y-72210000D01*
G75*
G02*
X92540000Y-72135000I0J75000D01*
G01*
X92540000Y-70810000D01*
G75*
G02*
X92615000Y-70735000I75000J0D01*
G01*
G37*
G36*
G01*
X93115000Y-70735000D02*
X93265000Y-70735000D01*
G75*
G02*
X93340000Y-70810000I0J-75000D01*
G01*
X93340000Y-72135000D01*
G75*
G02*
X93265000Y-72210000I-75000J0D01*
G01*
X93115000Y-72210000D01*
G75*
G02*
X93040000Y-72135000I0J75000D01*
G01*
X93040000Y-70810000D01*
G75*
G02*
X93115000Y-70735000I75000J0D01*
G01*
G37*
G36*
G01*
X93615000Y-70735000D02*
X93765000Y-70735000D01*
G75*
G02*
X93840000Y-70810000I0J-75000D01*
G01*
X93840000Y-72135000D01*
G75*
G02*
X93765000Y-72210000I-75000J0D01*
G01*
X93615000Y-72210000D01*
G75*
G02*
X93540000Y-72135000I0J75000D01*
G01*
X93540000Y-70810000D01*
G75*
G02*
X93615000Y-70735000I75000J0D01*
G01*
G37*
G36*
G01*
X94115000Y-70735000D02*
X94265000Y-70735000D01*
G75*
G02*
X94340000Y-70810000I0J-75000D01*
G01*
X94340000Y-72135000D01*
G75*
G02*
X94265000Y-72210000I-75000J0D01*
G01*
X94115000Y-72210000D01*
G75*
G02*
X94040000Y-72135000I0J75000D01*
G01*
X94040000Y-70810000D01*
G75*
G02*
X94115000Y-70735000I75000J0D01*
G01*
G37*
G36*
G01*
X94940000Y-69910000D02*
X96265000Y-69910000D01*
G75*
G02*
X96340000Y-69985000I0J-75000D01*
G01*
X96340000Y-70135000D01*
G75*
G02*
X96265000Y-70210000I-75000J0D01*
G01*
X94940000Y-70210000D01*
G75*
G02*
X94865000Y-70135000I0J75000D01*
G01*
X94865000Y-69985000D01*
G75*
G02*
X94940000Y-69910000I75000J0D01*
G01*
G37*
G36*
G01*
X94940000Y-69410000D02*
X96265000Y-69410000D01*
G75*
G02*
X96340000Y-69485000I0J-75000D01*
G01*
X96340000Y-69635000D01*
G75*
G02*
X96265000Y-69710000I-75000J0D01*
G01*
X94940000Y-69710000D01*
G75*
G02*
X94865000Y-69635000I0J75000D01*
G01*
X94865000Y-69485000D01*
G75*
G02*
X94940000Y-69410000I75000J0D01*
G01*
G37*
G36*
G01*
X94940000Y-68910000D02*
X96265000Y-68910000D01*
G75*
G02*
X96340000Y-68985000I0J-75000D01*
G01*
X96340000Y-69135000D01*
G75*
G02*
X96265000Y-69210000I-75000J0D01*
G01*
X94940000Y-69210000D01*
G75*
G02*
X94865000Y-69135000I0J75000D01*
G01*
X94865000Y-68985000D01*
G75*
G02*
X94940000Y-68910000I75000J0D01*
G01*
G37*
G36*
G01*
X94940000Y-68410000D02*
X96265000Y-68410000D01*
G75*
G02*
X96340000Y-68485000I0J-75000D01*
G01*
X96340000Y-68635000D01*
G75*
G02*
X96265000Y-68710000I-75000J0D01*
G01*
X94940000Y-68710000D01*
G75*
G02*
X94865000Y-68635000I0J75000D01*
G01*
X94865000Y-68485000D01*
G75*
G02*
X94940000Y-68410000I75000J0D01*
G01*
G37*
G36*
G01*
X94940000Y-67910000D02*
X96265000Y-67910000D01*
G75*
G02*
X96340000Y-67985000I0J-75000D01*
G01*
X96340000Y-68135000D01*
G75*
G02*
X96265000Y-68210000I-75000J0D01*
G01*
X94940000Y-68210000D01*
G75*
G02*
X94865000Y-68135000I0J75000D01*
G01*
X94865000Y-67985000D01*
G75*
G02*
X94940000Y-67910000I75000J0D01*
G01*
G37*
G36*
G01*
X94940000Y-67410000D02*
X96265000Y-67410000D01*
G75*
G02*
X96340000Y-67485000I0J-75000D01*
G01*
X96340000Y-67635000D01*
G75*
G02*
X96265000Y-67710000I-75000J0D01*
G01*
X94940000Y-67710000D01*
G75*
G02*
X94865000Y-67635000I0J75000D01*
G01*
X94865000Y-67485000D01*
G75*
G02*
X94940000Y-67410000I75000J0D01*
G01*
G37*
G36*
G01*
X94940000Y-66910000D02*
X96265000Y-66910000D01*
G75*
G02*
X96340000Y-66985000I0J-75000D01*
G01*
X96340000Y-67135000D01*
G75*
G02*
X96265000Y-67210000I-75000J0D01*
G01*
X94940000Y-67210000D01*
G75*
G02*
X94865000Y-67135000I0J75000D01*
G01*
X94865000Y-66985000D01*
G75*
G02*
X94940000Y-66910000I75000J0D01*
G01*
G37*
G36*
G01*
X94940000Y-66410000D02*
X96265000Y-66410000D01*
G75*
G02*
X96340000Y-66485000I0J-75000D01*
G01*
X96340000Y-66635000D01*
G75*
G02*
X96265000Y-66710000I-75000J0D01*
G01*
X94940000Y-66710000D01*
G75*
G02*
X94865000Y-66635000I0J75000D01*
G01*
X94865000Y-66485000D01*
G75*
G02*
X94940000Y-66410000I75000J0D01*
G01*
G37*
G36*
G01*
X94940000Y-65910000D02*
X96265000Y-65910000D01*
G75*
G02*
X96340000Y-65985000I0J-75000D01*
G01*
X96340000Y-66135000D01*
G75*
G02*
X96265000Y-66210000I-75000J0D01*
G01*
X94940000Y-66210000D01*
G75*
G02*
X94865000Y-66135000I0J75000D01*
G01*
X94865000Y-65985000D01*
G75*
G02*
X94940000Y-65910000I75000J0D01*
G01*
G37*
G36*
G01*
X94940000Y-65410000D02*
X96265000Y-65410000D01*
G75*
G02*
X96340000Y-65485000I0J-75000D01*
G01*
X96340000Y-65635000D01*
G75*
G02*
X96265000Y-65710000I-75000J0D01*
G01*
X94940000Y-65710000D01*
G75*
G02*
X94865000Y-65635000I0J75000D01*
G01*
X94865000Y-65485000D01*
G75*
G02*
X94940000Y-65410000I75000J0D01*
G01*
G37*
G36*
G01*
X94940000Y-64910000D02*
X96265000Y-64910000D01*
G75*
G02*
X96340000Y-64985000I0J-75000D01*
G01*
X96340000Y-65135000D01*
G75*
G02*
X96265000Y-65210000I-75000J0D01*
G01*
X94940000Y-65210000D01*
G75*
G02*
X94865000Y-65135000I0J75000D01*
G01*
X94865000Y-64985000D01*
G75*
G02*
X94940000Y-64910000I75000J0D01*
G01*
G37*
G36*
G01*
X94940000Y-64410000D02*
X96265000Y-64410000D01*
G75*
G02*
X96340000Y-64485000I0J-75000D01*
G01*
X96340000Y-64635000D01*
G75*
G02*
X96265000Y-64710000I-75000J0D01*
G01*
X94940000Y-64710000D01*
G75*
G02*
X94865000Y-64635000I0J75000D01*
G01*
X94865000Y-64485000D01*
G75*
G02*
X94940000Y-64410000I75000J0D01*
G01*
G37*
D11*
X93705000Y-53580000D03*
X90805000Y-53580000D03*
X90805000Y-55880000D03*
X93705000Y-55880000D03*
M02*
